<?xml version="1.0" encoding="iso-8859-1"?>
<!-- Generator: Adobe Illustrator 19.0.0, SVG Export Plug-In . SVG Version: 6.00 Build 0)  -->
<svg fill="#273582" width="128" height="128" xmlns="http://www.w3.org/2000/svg" xmlns:xlink="http://www.w3.org/1999/xlink" x="0px" y="0px"
	 viewBox="0 0 491.04 491.04" style="enable-background:new 0 0 491.04 491.04;" xml:space="preserve">
<g>
	<g>
		<path d="M477.52,5.52h-64h-336h-64c-4.416,0-8,3.576-8,8v64v64v24v40v16v48v64c0,4.424,3.584,8,8,8h64h336h64c4.416,0,8-3.576,8-8
			v-64v-64v-64v-64v-64C485.52,9.096,481.936,5.52,477.52,5.52z M69.52,325.52h-48v-48h48V325.52z M69.52,261.52h-48v-40v-8h48
			V261.52z M69.52,197.52h-48v-32v-16h48V197.52z M69.52,133.52h-48v-48h48V133.52z M69.52,69.52h-48v-48h48V69.52z M405.52,77.52
			v64v64v64v56h-320v-56v-64v-64v-64v-56h320V77.52z M469.52,325.52h-48v-48h48V325.52z M469.52,261.52h-48v-48h48V261.52z
			 M469.52,197.52h-48v-48h48V197.52z M469.52,133.52h-48v-48h48V133.52z M469.52,69.52h-48v-48h48V69.52z"/>
	</g>
</g>
<g>
	<g>
		<path d="M344.592,158.136l-192-80c-2.48-1.04-5.288-0.76-7.512,0.728s-3.56,3.984-3.56,6.656v176c0,2.776,1.44,5.344,3.792,6.808
			c1.288,0.792,2.744,1.192,4.208,1.192c1.224,0,2.448-0.28,3.576-0.84l192-96c2.8-1.4,4.52-4.304,4.416-7.432
			C349.4,162.112,347.48,159.344,344.592,158.136z M157.52,248.576V97.52l164.792,68.664L157.52,248.576z"/>
	</g>
</g>
<g>
	<g>
		<path d="M413.52,414.056v-28.912c5.304-4.328,16.552-11.624,32-11.624c4.688,0,21.04,0.992,34.488,13.8l11.032-11.592
			c-17.264-16.432-37.584-18.208-45.52-18.208c-18.456,0-32.096,7.6-40.016,13.584c-15.872-12.08-32.88-13.584-39.984-13.584
			c-18.456,0-32.096,7.6-40.016,13.584c-15.872-12.08-32.88-13.584-39.984-13.584c-18.456,0-32.096,7.6-40.016,13.584
			c-15.872-12.08-32.88-13.584-39.984-13.584c-18.456,0-32.096,7.6-40.016,13.584c-15.872-12.08-32.88-13.584-39.984-13.584
			c-18.44,0-32.08,7.592-40,13.576c-7.92-5.984-21.56-13.576-40-13.576c-7.944,0-28.272,1.776-45.52,18.208l11.04,11.576
			c13.064-12.44,28.464-13.784,34.48-13.784c15.448,0,26.696,7.296,32,11.616v28.904c-14.432,1.776-25.288,7.976-32.016,13.064
			c-15.872-12.08-32.88-13.584-39.984-13.584v16c4.408,0,19.096,0.872,32,11.584v28.416h-32v16h40h80h80h80h80h80h40v-16h-32
			v-28.424c12.48-10.4,26.36-11.576,32-11.576v-16c-7.112,0-24.128,1.504-40,13.6C434.064,418.392,422.016,415.144,413.52,414.056z
			 M117.52,469.52h-64v-28.384c5.304-4.32,16.552-11.616,32-11.616c4.408,0,19.096,0.872,32,11.584V469.52z M125.504,427.104
			c-11.456-8.72-23.496-11.968-31.984-13.056v-28.912c5.304-4.32,16.552-11.616,32-11.616c4.408,0,19.096,0.872,32,11.584v28.936
			C143.088,415.816,132.232,422.016,125.504,427.104z M197.52,469.52h-64v-28.384c5.304-4.32,16.552-11.616,32-11.616
			c4.408,0,19.096,0.872,32,11.584V469.52z M205.504,427.104c-11.456-8.72-23.496-11.968-31.984-13.056v-28.912
			c5.304-4.32,16.552-11.616,32-11.616c4.408,0,19.096,0.872,32,11.584v28.936C223.088,415.816,212.232,422.016,205.504,427.104z
			 M277.52,469.52h-64v-28.384c5.304-4.32,16.552-11.616,32-11.616c4.408,0,19.096,0.872,32,11.584V469.52z M285.504,427.104
			c-11.456-8.72-23.496-11.968-31.984-13.056v-28.912c5.304-4.32,16.552-11.616,32-11.616c4.408,0,19.096,0.872,32,11.584v28.936
			C303.088,415.816,292.232,422.016,285.504,427.104z M357.52,469.52h-64v-28.384c5.304-4.32,16.552-11.616,32-11.616
			c4.408,0,19.096,0.872,32,11.584V469.52z M365.504,427.104c-11.456-8.72-23.496-11.968-31.984-13.056v-28.912
			c5.304-4.32,16.552-11.616,32-11.616c4.408,0,19.096,0.872,32,11.584v28.936C383.088,415.816,372.232,422.016,365.504,427.104z
			 M437.52,469.52h-64v-28.384c5.304-4.32,16.552-11.616,32-11.616c4.408,0,19.096,0.872,32,11.584V469.52z"/>
	</g>
</g>
<g>
</g>
<g>
</g>
<g>
</g>
<g>
</g>
<g>
</g>
<g>
</g>
<g>
</g>
<g>
</g>
<g>
</g>
<g>
</g>
<g>
</g>
<g>
</g>
<g>
</g>
<g>
</g>
<g>
</g>
</svg>
