<?xml version="1.0" encoding="iso-8859-1"?>
<!-- Generator: Adobe Illustrator 19.0.0, SVG Export Plug-In . SVG Version: 6.00 Build 0)  -->
<svg fill="#273582" width="128" height="128" xmlns="http://www.w3.org/2000/svg" xmlns:xlink="http://www.w3.org/1999/xlink" x="0px" y="0px"
	 viewBox="0 0 480 480" style="enable-background:new 0 0 480 480;" xml:space="preserve">
<g>
	<g>
		<polygon points="64,400 64,384 48,384 48,400 32,400 32,416 48,416 48,432 64,432 64,416 80,416 80,400 		"/>
	</g>
</g>
<g>
	<g>
		<path d="M160,384c-13.232,0-24,10.768-24,24s10.768,24,24,24s24-10.768,24-24S173.232,384,160,384z M160,416c-4.416,0-8-3.592-8-8
			c0-4.408,3.584-8,8-8s8,3.592,8,8C168,412.408,164.416,416,160,416z"/>
	</g>
</g>
<g>
	<g>
		<polygon points="320,400 320,384 304,384 304,400 288,400 288,416 304,416 304,432 320,432 320,416 336,416 336,400 		"/>
	</g>
</g>
<g>
	<g>
		<path d="M416,384c-13.232,0-24,10.768-24,24s10.768,24,24,24s24-10.768,24-24S429.232,384,416,384z M416,416c-4.416,0-8-3.592-8-8
			c0-4.408,3.584-8,8-8c4.416,0,8,3.592,8,8C424,412.408,420.416,416,416,416z"/>
	</g>
</g>
<g>
	<g>
		<path d="M416,352h-24v-16c0-8.824-7.176-16-16-16v-16h80c4.424,0,8-3.584,8-8V128c0-4.416-3.576-8-8-8h-88V8c0-4.416-3.576-8-8-8
			H120c-4.424,0-8,3.584-8,8v112H24c-4.424,0-8,3.584-8,8v168c0,4.416,3.576,8,8,8h80v16c-8.824,0-16,7.176-16,16v16H64
			c-35.288,0-64,28.712-64,64c0,35.288,28.712,64,64,64c2.128,0,4.16-0.84,5.656-2.344L83.312,464h57.376l13.656,13.656
			C155.84,479.16,157.872,480,160,480c35.288,0,64-28.712,64-64c0-35.288-28.712-64-64-64h-24v-16c0-8.824-7.176-16-16-16v-24
			c0-4.416-3.576-8-8-8H32V136h80v32c0,4.416,3.576,8,8,8h56v16H72c-4.424,0-8,3.584-8,8v64c0,4.416,3.576,8,8,8h336
			c4.424,0,8-3.584,8-8v-64c0-4.416-3.576-8-8-8H304v-16h56c4.424,0,8-3.584,8-8v-32h80v152h-80c-4.424,0-8,3.584-8,8v24
			c-8.824,0-16,7.176-16,16v16h-24c-35.288,0-64,28.712-64,64c0,35.288,28.712,64,64,64c2.128,0,4.16-0.84,5.656-2.344L339.312,464
			h57.376l13.656,13.656C411.84,479.16,413.872,480,416,480c35.288,0,64-28.712,64-64C480,380.712,451.288,352,416,352z M128,368h32
			c26.472,0,48,21.528,48,48c0,25.392-19.816,46.24-44.792,47.896l-13.552-13.552C148.16,448.84,146.128,448,144,448H80
			c-2.128,0-4.16,0.84-5.656,2.344l-13.552,13.552C35.816,462.24,16,441.392,16,416c0-26.472,21.528-48,48-48h32H128z M120,336v16
			h-16v-16H120z M400,208v48H80v-48h104h112H400z M192,192v-16h96v16H192z M352,160h-56H184h-56V16h224V160z M360,336h16v16h-16V336
			z M419.208,463.896l-13.552-13.552C404.16,448.84,402.128,448,400,448h-64c-2.128,0-4.16,0.84-5.656,2.344l-13.552,13.552
			C291.816,462.24,272,441.392,272,416c0-26.472,21.528-48,48-48h32h32h32c26.472,0,48,21.528,48,48
			C464,441.392,444.184,462.24,419.208,463.896z"/>
	</g>
</g>
<g>
	<g>
		<path d="M235.232,103.288c-0.672-2.008-2.12-3.68-4.016-4.632L209.888,88l21.32-10.664c1.896-0.952,3.344-2.616,4.016-4.632
			c0.664-2.016,0.504-4.216-0.448-6.112C226.56,50.192,210.168,40,192,40c-26.472,0-48,21.528-48,48s21.528,48,48,48
			c18.168,0,34.56-10.192,42.784-26.6C235.736,107.504,235.896,105.304,235.232,103.288z M192,120c-17.648,0-32-14.352-32-32
			s14.352-32,32-32c9.368,0,18.032,4.096,24.016,11.048L188.424,80.84C185.712,82.2,184,84.968,184,88s1.712,5.8,4.424,7.16
			l27.592,13.792C210.032,115.904,201.368,120,192,120z"/>
	</g>
</g>
<g>
	<g>
		<rect x="256" y="80" width="16" height="16"/>
	</g>
</g>
<g>
	<g>
		<rect x="288" y="80" width="16" height="16"/>
	</g>
</g>
<g>
	<g>
		<rect x="320" y="80" width="16" height="16"/>
	</g>
</g>
<g>
</g>
<g>
</g>
<g>
</g>
<g>
</g>
<g>
</g>
<g>
</g>
<g>
</g>
<g>
</g>
<g>
</g>
<g>
</g>
<g>
</g>
<g>
</g>
<g>
</g>
<g>
</g>
<g>
</g>
</svg>
