<?xml version="1.0" encoding="iso-8859-1"?>
<!-- Generator: Adobe Illustrator 19.0.0, SVG Export Plug-In . SVG Version: 6.00 Build 0)  -->
<svg fill="#273582" width="128" height="128" xmlns="http://www.w3.org/2000/svg" xmlns:xlink="http://www.w3.org/1999/xlink" x="0px" y="0px"
	 viewBox="0 0 487.168 487.168" style="enable-background:new 0 0 487.168 487.168;" xml:space="preserve">
<g>
	<g>
		<path d="M355.584,81.585c-35.288,0-64,28.712-64,64c0,35.288,28.712,64,64,64c35.288,0,64-28.712,64-64
			C419.584,110.297,390.872,81.585,355.584,81.585z M355.584,193.585c-26.472,0-48-21.528-48-48s21.528-48,48-48s48,21.528,48,48
			S382.056,193.585,355.584,193.585z"/>
	</g>
</g>
<g>
	<g>
		<path d="M453.472,265.585c-11.2-5.608-24.576-5.592-35.776,0l-35.376,17.688c-1.408,0.704-2.896,1.176-4.392,1.584
			c-0.232-0.312-0.408-0.648-0.688-0.928L230.896,137.585l82.344-82.344c3.128-3.128,3.128-8.184,0-11.312l-40-40
			c-3.128-3.128-8.184-3.128-11.312,0l-136,136c-3.128,3.128-3.128,8.184,0,11.312l66.344,66.344l-65.424,65.424l-0.528,0.264
			c-6.728,3.36-14.752,3.36-21.472,0l-35.376-17.688c-11.2-5.608-24.576-5.592-35.784,0L0,282.425l7.16,14.312l33.688-16.84
			c6.728-3.36,14.752-3.36,21.472,0l35.376,17.688c11.2,5.608,24.576,5.592,35.784,0l1.688-0.84l33.688-16.84
			c6.728-3.36,14.752-3.36,21.472,0l33.688,16.84l1.68,0.84c11.2,5.608,24.576,5.592,35.784,0l1.688-0.84l33.688-16.84
			c6.728-3.36,14.752-3.36,21.472,0l33.688,16.84l1.68,0.84c5.6,2.808,11.744,4.2,17.888,4.2c6.144,0,12.288-1.4,17.888-4.2
			l35.376-17.688c6.728-3.36,14.752-3.36,21.472,0l33.688,16.84l7.16-14.312L453.472,265.585z M325.472,265.585
			c-11.2-5.608-24.576-5.592-35.784,0L256,282.425l-1.688,0.84c-6.728,3.36-14.752,3.36-21.472,0l-1.688-0.84l-33.68-16.84
			c-1.904-0.952-3.888-1.688-5.896-2.312c-0.488-0.152-0.976-0.296-1.464-0.432c-2-0.544-4.016-0.976-6.064-1.2
			c-0.216-0.024-0.424-0.016-0.64-0.04c-1.872-0.176-3.744-0.2-5.616-0.112c-0.544,0.024-1.08,0.048-1.624,0.096
			c-2.024,0.176-4.032,0.464-6.008,0.936c-0.072,0.016-0.152,0.016-0.232,0.04l39.312-39.312c3.128-3.128,3.128-8.184,0-11.312
			l-66.344-66.352L267.584,20.897l28.688,28.688l-82.344,82.344c-3.128,3.128-3.128,8.184,0,11.312l133.144,133.144L325.472,265.585
			z"/>
	</g>
</g>
<g>
	<g>
		<path d="M74.384,466.729c-3.616-2.176-8.56-5.144-17.44-5.144c-8.888,0-13.84,2.968-17.456,5.144
			c-2.976,1.776-4.768,2.856-9.224,2.856s-6.248-1.08-9.224-2.856c-3.624-2.176-8.568-5.144-17.456-5.144v16
			c4.456,0,6.248,1.08,9.224,2.856c3.616,2.176,8.568,5.144,17.456,5.144c8.88,0,13.832-2.968,17.456-5.144
			c2.976-1.776,4.768-2.856,9.224-2.856c4.44,0,6.232,1.08,9.192,2.856c3.616,2.176,8.568,5.144,17.448,5.144v-16
			C79.144,469.585,77.352,468.505,74.384,466.729z"/>
	</g>
</g>
<g>
	<g>
		<path d="M274.384,466.729c-3.608-2.168-8.56-5.144-17.432-5.144c-8.888,0-13.84,2.968-17.456,5.144
			c-2.976,1.784-4.776,2.856-9.224,2.856s-6.248-1.08-9.224-2.856c-3.632-2.176-8.576-5.144-17.464-5.144v16
			c4.456,0,6.248,1.08,9.224,2.856c3.616,2.168,8.568,5.144,17.456,5.144c8.88,0,13.832-2.968,17.456-5.144
			c2.976-1.784,4.776-2.856,9.232-2.856c4.44,0,6.232,1.08,9.192,2.856c3.608,2.176,8.56,5.144,17.44,5.144v-16
			C279.144,469.585,277.352,468.505,274.384,466.729z"/>
	</g>
</g>
<g>
	<g>
		<path d="M466.384,466.729c-3.608-2.168-8.56-5.144-17.432-5.144c-8.888,0-13.84,2.968-17.456,5.144
			c-2.976,1.784-4.776,2.856-9.224,2.856s-6.248-1.08-9.224-2.856c-3.632-2.176-8.576-5.144-17.464-5.144v16
			c4.456,0,6.248,1.08,9.224,2.856c3.616,2.168,8.568,5.144,17.456,5.144c8.88,0,13.832-2.968,17.456-5.144
			c2.976-1.784,4.776-2.856,9.232-2.856c4.44,0,6.232,1.08,9.192,2.856c3.608,2.176,8.56,5.144,17.44,5.144v-16
			C471.144,469.585,469.352,468.505,466.384,466.729z"/>
	</g>
</g>
<g>
	<g>
		<path d="M170.384,402.729c-3.608-2.168-8.56-5.144-17.432-5.144c-8.888,0-13.84,2.968-17.456,5.144
			c-2.976,1.784-4.776,2.856-9.224,2.856s-6.248-1.08-9.224-2.856c-3.632-2.176-8.576-5.144-17.464-5.144v16
			c4.456,0,6.248,1.08,9.224,2.856c3.616,2.168,8.568,5.144,17.456,5.144c8.88,0,13.832-2.968,17.456-5.144
			c2.976-1.784,4.776-2.856,9.232-2.856c4.44,0,6.232,1.08,9.192,2.856c3.608,2.176,8.56,5.144,17.44,5.144v-16
			C175.144,405.585,173.352,404.505,170.384,402.729z"/>
	</g>
</g>
<g>
	<g>
		<path d="M370.384,402.729c-3.608-2.168-8.56-5.144-17.432-5.144c-8.888,0-13.84,2.968-17.456,5.144
			c-2.976,1.784-4.776,2.856-9.224,2.856s-6.248-1.08-9.224-2.856c-3.632-2.176-8.576-5.144-17.464-5.144v16
			c4.456,0,6.248,1.08,9.224,2.856c3.616,2.168,8.568,5.144,17.456,5.144c8.88,0,13.832-2.968,17.456-5.144
			c2.976-1.784,4.776-2.856,9.232-2.856c4.44,0,6.232,1.08,9.192,2.856c3.608,2.176,8.56,5.144,17.44,5.144v-16
			C375.144,405.585,373.352,404.505,370.384,402.729z"/>
	</g>
</g>
<g>
	<g>
		<path d="M453.48,333.801c-11.208-5.592-24.576-5.592-35.784,0l-35.368,17.696c-6.728,3.36-14.752,3.36-21.472,0l-35.376-17.696
			c-11.2-5.592-24.568-5.592-35.776,0l-35.368,17.696c-6.728,3.36-14.752,3.36-21.472,0l-35.376-17.696
			c-11.2-5.592-24.568-5.592-35.776,0l-35.368,17.696c-6.728,3.36-14.752,3.36-21.472,0l-35.376-17.696
			c-11.2-5.592-24.568-5.592-35.776,0L0.032,350.649l7.16,14.312l33.68-16.848c6.728-3.36,14.752-3.36,21.472,0l35.376,17.696
			c11.2,5.592,24.568,5.592,35.776,0l35.368-17.696c6.728-3.36,14.752-3.36,21.472,0l35.376,17.696
			c11.2,5.592,24.568,5.592,35.776,0l35.368-17.696c6.728-3.36,14.752-3.36,21.472,0l35.376,17.696
			c5.6,2.8,11.744,4.192,17.888,4.192c6.144,0,12.288-1.4,17.888-4.192l35.368-17.696c6.728-3.36,14.752-3.36,21.472,0
			l33.688,16.848l7.16-14.312L453.48,333.801z"/>
	</g>
</g>
<g>
</g>
<g>
</g>
<g>
</g>
<g>
</g>
<g>
</g>
<g>
</g>
<g>
</g>
<g>
</g>
<g>
</g>
<g>
</g>
<g>
</g>
<g>
</g>
<g>
</g>
<g>
</g>
<g>
</g>
</svg>
