<?xml version="1.0" encoding="iso-8859-1"?>
<!-- Generator: Adobe Illustrator 19.0.0, SVG Export Plug-In . SVG Version: 6.00 Build 0)  -->
<svg fill="#273582" width="128" height="128" xmlns="http://www.w3.org/2000/svg" xmlns:xlink="http://www.w3.org/1999/xlink" x="0px" y="0px"
	 viewBox="0 0 486.32 486.32" style="enable-background:new 0 0 486.32 486.32;" xml:space="preserve">
<g>
	<g>
		<path d="M59.584,20l-32-16c-2.832-1.416-6.248-1.016-8.696,1c-2.432,2.032-3.448,5.312-2.584,8.36l8.536,29.888
			c-0.28-0.016-0.552-0.088-0.84-0.088c-13.232,0-24,10.768-24,24s10.768,24,24,24s24-10.768,24-24
			c0-4.024-1.088-7.768-2.848-11.104l-8.464-29.608l15.736,7.864L59.584,20z M24,75.16c-4.416,0-8-3.592-8-8s3.584-8,8-8
			c2.656,0,4.904,1.392,6.36,3.392l1.504,5.272C31.512,71.912,28.176,75.16,24,75.16z"/>
	</g>
</g>
<g>
	<g>
		<path d="M363.584,132l-32-16c-2.832-1.416-6.24-1.024-8.688,1c-2.44,2.024-3.456,5.304-2.584,8.352l8.536,29.888
			c-0.288-0.008-0.56-0.08-0.848-0.08c-13.232,0-24,10.768-24,24s10.768,24,24,24s24-10.768,24-24c0-4.024-1.088-7.768-2.848-11.104
			l-8.464-29.608l15.736,7.864L363.584,132z M328,187.16c-4.416,0-8-3.592-8-8s3.584-8,8-8c2.656,0,4.904,1.392,6.36,3.392
			l1.504,5.272C335.512,183.912,332.176,187.16,328,187.16z"/>
	</g>
</g>
<g>
	<g>
		<path d="M307.584,20l-32-16c-2.832-1.416-6.232-1.016-8.688,1c-2.44,2.024-3.456,5.304-2.584,8.352l8.536,29.888
			c-0.288-0.008-0.56-0.08-0.848-0.08c-13.232,0-24,10.768-24,24s10.768,24,24,24s24-10.768,24-24c0-4.024-1.088-7.768-2.848-11.104
			l-8.464-29.608l15.736,7.864L307.584,20z M272,75.16c-4.416,0-8-3.592-8-8s3.584-8,8-8c2.656,0,4.904,1.392,6.36,3.392
			l1.504,5.272C279.512,71.912,276.176,75.16,272,75.16z"/>
	</g>
</g>
<g>
	<g>
		<path d="M457.12,6.256C441.744,26.08,427.288,35.8,414.176,35.168c-3.288-0.16-6.008-0.944-10.12-2.128
			c-5.784-1.664-13.704-3.944-27.84-5.816c-16.448-2.184-23.92-1.544-30.632,0.184c-11.016,2.84-21.472,8.872-31.072,17.92
			l10.968,11.648c7.624-7.168,15.728-11.912,24.104-14.072c3.784-0.984,9.112-1.856,24.536,0.184
			c12.952,1.712,19.912,3.72,25.504,5.328c4.624,1.336,8.624,2.488,13.776,2.736c18.672,0.856,37.6-10.904,56.36-35.088
			L457.12,6.256z"/>
	</g>
</g>
<g>
	<g>
		<path d="M473.68,46.256c-15.384,19.824-29.632,29.536-42.952,28.912c-3.28-0.16-6-0.944-10.12-2.128
			c-5.784-1.664-13.704-3.944-27.832-5.816c-16.472-2.184-23.92-1.544-30.632,0.184c-11.032,2.84-21.488,8.88-31.08,17.928
			l10.984,11.64c7.6-7.176,15.712-11.912,24.096-14.072c3.784-0.984,9.112-1.856,24.536,0.184
			c12.952,1.712,19.912,3.72,25.504,5.328c4.624,1.336,8.616,2.488,13.768,2.736c18.632,0.848,37.6-10.904,56.368-35.088
			L473.68,46.256z"/>
	</g>
</g>
<g>
	<g>
		<path d="M411.584,244.008l-32-16c-2.832-1.416-6.24-1.024-8.688,1c-2.44,2.024-3.456,5.304-2.584,8.352l8.536,29.888
			c-0.288-0.016-0.56-0.088-0.848-0.088c-13.232,0-24,10.768-24,24s10.768,24,24,24s24-10.768,24-24
			c0-4.024-1.088-7.768-2.848-11.104l-8.464-29.608l15.736,7.872L411.584,244.008z M376,299.16c-4.416,0-8-3.592-8-8
			c0-4.408,3.584-8,8-8c2.656,0,4.904,1.392,6.36,3.392l1.504,5.272C383.512,295.912,380.176,299.16,376,299.16z"/>
	</g>
</g>
<g>
	<g>
		<path d="M75.584,236.008l-32-16c-2.832-1.416-6.24-1.024-8.688,1c-2.44,2.024-3.456,5.304-2.584,8.352l8.536,29.888
			c-0.288-0.016-0.56-0.088-0.848-0.088c-13.232,0-24,10.768-24,24s10.768,24,24,24s24-10.768,24-24
			c0-4.024-1.088-7.768-2.848-11.104l-8.464-29.608l15.736,7.872L75.584,236.008z M40,291.16c-4.416,0-8-3.592-8-8
			c0-4.408,3.584-8,8-8c2.656,0,4.904,1.392,6.36,3.392l1.504,5.272C47.512,287.912,44.176,291.16,40,291.16z"/>
	</g>
</g>
<g>
	<g>
		<path d="M392,443.16c-17.648,0-32-14.352-32-32c0-26.472-21.528-48-48-48h-16c-26.472,0-48,21.528-48,48v24
			c0,17.648-14.352,32-32,32h-24c-17.648,0-32-14.352-32-32v-16h16c4.192,0,7.68-3.24,7.976-7.432l15.832-221.648L220,163.16h4
			c8.824,0,16-7.176,16-16v-16c0-5.944-3.296-11.088-8.128-13.84c0.024-0.728,0.128-1.432,0.128-2.16c0-44.112-35.888-80-80-80
			s-80,35.888-80,80c0,0.728,0.104,1.432,0.128,2.16C67.296,120.072,64,125.216,64,131.16v16c0,8.824,7.176,16,16,16h4l20.192,26.92
			l15.832,221.648c0.296,4.192,3.784,7.432,7.976,7.432h16v16c0,26.472,21.528,48,48,48h24c26.472,0,48-21.528,48-48v-24
			c0-17.648,14.352-32,32-32h16c17.648,0,32,14.352,32,32c0,26.472,21.528,48,48,48h88v-16H392z M152,51.16
			c35.288,0,64,28.712,64,64H88C88,79.872,116.712,51.16,152,51.16z M80,147.16v-16h0.472h143.064H224l0.008,16H216H88H80z
			 M116,179.16l-12-16h96l-12,16H116z M135.44,403.16l-14.848-208h62.816l-14.856,208H135.44z"/>
	</g>
</g>
<g>
	<g>
		<rect x="144" y="211.16" width="16" height="32"/>
	</g>
</g>
<g>
	<g>
		<rect x="144" y="259.16" width="16" height="16"/>
	</g>
</g>
<g>
</g>
<g>
</g>
<g>
</g>
<g>
</g>
<g>
</g>
<g>
</g>
<g>
</g>
<g>
</g>
<g>
</g>
<g>
</g>
<g>
</g>
<g>
</g>
<g>
</g>
<g>
</g>
<g>
</g>
</svg>
