<?xml version="1.0" encoding="iso-8859-1"?>
<!-- Generator: Adobe Illustrator 19.0.0, SVG Export Plug-In . SVG Version: 6.00 Build 0)  -->
<svg fill="#273582" width="128" height="128" xmlns="http://www.w3.org/2000/svg" xmlns:xlink="http://www.w3.org/1999/xlink" x="0px" y="0px"
	 viewBox="0 0 480 480" style="enable-background:new 0 0 480 480;" xml:space="preserve">
<g>
	<g>
		<path d="M320,192h-41.744l-40.28-45.312c-2.2-2.488-5.696-3.336-8.824-2.168c-3.096,1.184-5.152,4.16-5.152,7.48v32.96
			l-34.024-38.28c-2.192-2.488-5.688-3.336-8.824-2.168C178.056,145.704,176,148.68,176,152v14.96l-18.024-20.28
			c-2.2-2.488-5.696-3.336-8.824-2.168C146.056,145.704,144,148.68,144,152v23.96l-26.024-29.28
			c-2.192-2.488-5.704-3.336-8.824-2.168C106.056,145.704,104,148.68,104,152v23.96l-26.024-29.28
			c-2.2-2.488-5.696-3.336-8.824-2.168C66.056,145.704,64,148.68,64,152v23.96l-26.024-29.28c-2.2-2.488-5.688-3.336-8.824-2.168
			C26.056,145.704,24,148.68,24,152v40H8c-4.424,0-8,3.576-8,8v80c0,4.424,3.576,8,8,8h312c4.424,0,8-3.576,8-8v-80
			C328,195.576,324.424,192,320,192z M240,173.04L256.856,192H240V173.04z M192,173.04L208.856,192h-10.6L192,184.96V173.04z
			 M160,173.04l16,18V192h-16V173.04z M120,173.04L136.856,192H120V173.04z M80,173.04L96.856,192H80V173.04z M40,173.04L56.856,192
			H40V173.04z M312,272H16v-64h55.08l18.944,21.312l11.952-10.624L92.48,208h18.6l18.944,21.312l11.952-10.624L132.48,208h18.6
			l18.944,21.312l11.952-10.624L172.48,208h18.6l18.944,21.312l11.952-10.624L212.48,208h10.6l18.944,21.312l11.952-10.624
			L244.48,208h26.6l18.944,21.312l11.952-10.624L292.48,208H312V272z"/>
	</g>
</g>
<g>
	<g>
		<path d="M432,320h-44c-15.44,0-28-12.56-28-28s12.56-28,28-28h40c28.672,0,52-23.328,52-52s-23.328-52-52-52h-4v-16
			c0-10.416-6.712-19.216-16-22.528V0h-16v121.472c-9.288,3.312-16,12.112-16,22.528v16h-4c-24.256,0-44-19.744-44-44v-16
			c0-28.672-23.328-52-52-52v16c19.848,0,36,16.152,36,36v16c0,33.088,26.912,60,60,60h4v16c0,13.232,10.768,24,24,24
			s24-10.768,24-24v-16h4c19.848,0,36,16.152,36,36c0,19.848-16.152,36-36,36h-40c-24.256,0-44,19.744-44,44
			c0,24.256,19.744,44,44,44h44c17.648,0,32,14.352,32,32s-14.352,32-32,32H272v-56c0-2.776-1.44-5.344-3.8-6.808
			c-2.36-1.472-5.304-1.584-7.784-0.352L214.112,360H184h-32h-32H88H57.888l-46.312-23.16c-2.48-1.224-5.432-1.12-7.784,0.352
			C1.44,338.656,0,341.224,0,344v128c0,2.776,1.44,5.344,3.8,6.808C5.08,479.6,6.536,480,8,480c1.224,0,2.448-0.28,3.576-0.84
			L57.888,456H88h32h32h32h30.112l46.312,23.16c1.128,0.56,2.352,0.84,3.576,0.84c1.464,0,2.92-0.4,4.2-1.192
			c2.36-1.464,3.8-4.032,3.8-6.808v-56h160c26.472,0,48-21.528,48-48S458.472,320,432,320z M408,192c0,4.416-3.584,8-8,8
			c-4.416,0-8-3.584-8-8v-16h16V192z M408,160h-16v-16c0-4.416,3.584-8,8-8c4.416,0,8,3.584,8,8V160z M48,443.056l-32,16V356.944
			l32,16V443.056z M80,440H64v-64h16V440z M112,440H96v-64h16V440z M144,440h-16v-64h16V440z M176,440h-16v-64h16V440z M208,440h-16
			v-64h16V440z M256,459.056l-32-16v-70.112l32-16V459.056z"/>
	</g>
</g>
<g>
	<g>
		<rect x="240" y="48" width="16" height="16"/>
	</g>
</g>
<g>
	<g>
		<rect x="208" y="48" width="16" height="16"/>
	</g>
</g>
<g>
	<g>
		<rect x="176" y="48" width="16" height="16"/>
	</g>
</g>
<g>
</g>
<g>
</g>
<g>
</g>
<g>
</g>
<g>
</g>
<g>
</g>
<g>
</g>
<g>
</g>
<g>
</g>
<g>
</g>
<g>
</g>
<g>
</g>
<g>
</g>
<g>
</g>
<g>
</g>
</svg>
