<?xml version="1.0" encoding="iso-8859-1"?>
<!-- Generator: Adobe Illustrator 19.0.0, SVG Export Plug-In . SVG Version: 6.00 Build 0)  -->
<svg fill="#273582" width="128" height="128" xmlns="http://www.w3.org/2000/svg" xmlns:xlink="http://www.w3.org/1999/xlink" x="0px" y="0px"
	 viewBox="0 0 480 480" style="enable-background:new 0 0 480 480;" xml:space="preserve">
<g>
	<g>
		<path d="M365.656,178.344l-32-32C332.16,144.84,330.128,144,328,144H88c-2.128,0-4.16,0.84-5.656,2.344l-32,32
			C48.84,179.84,48,181.872,48,184v80c0,2.128,0.84,4.16,2.344,5.656l32,32C83.84,303.16,85.872,304,88,304h88
			c2.672,0,5.168-1.336,6.656-3.56L208,262.424l25.344,38.016c1.488,2.224,3.984,3.56,6.656,3.56h88c2.128,0,4.16-0.84,5.656-2.344
			l32-32C367.16,268.16,368,266.128,368,264v-80C368,181.872,367.16,179.84,365.656,178.344z M352,260.688L324.688,288H244.28
			l-29.624-44.44c-2.968-4.456-10.344-4.456-13.312,0L171.72,288H91.312L64,260.688v-73.376L91.312,160h233.376L352,187.312V260.688
			z"/>
	</g>
</g>
<g>
	<g>
		<path d="M40,24C17.944,24,0,41.944,0,64c0,22.056,17.944,40,40,40c22.056,0,40-17.944,40-40C80,41.944,62.056,24,40,24z M40,88
			c-13.232,0-24-10.768-24-24s10.768-24,24-24s24,10.768,24,24S53.232,88,40,88z"/>
	</g>
</g>
<g>
	<g>
		<path d="M120,0c-17.648,0-32,14.352-32,32s14.352,32,32,32s32-14.352,32-32S137.648,0,120,0z M120,48c-8.824,0-16-7.176-16-16
			s7.176-16,16-16c8.824,0,16,7.176,16,16S128.824,48,120,48z"/>
	</g>
</g>
<g>
	<g>
		<path d="M104,80c-13.232,0-24,10.768-24,24s10.768,24,24,24s24-10.768,24-24S117.232,80,104,80z M104,112c-4.416,0-8-3.584-8-8
			s3.584-8,8-8s8,3.584,8,8S108.416,112,104,112z"/>
	</g>
</g>
<g>
	<g>
		<rect x="168" y="320" width="80" height="16"/>
	</g>
</g>
<g>
	<g>
		<path d="M472,24h-64c-4.424,0-8,3.576-8,8v16c0,10.416,6.712,19.216,16,22.528V424c0,4.416-3.584,8-8,8H240c-4.416,0-8-3.584-8-8
			v-22.496c14.32-8.312,24-23.784,24-41.504c0-4.424-3.576-8-8-8h-80c-4.424,0-8,3.576-8,8c0,17.72,9.68,33.192,24,41.504V424
			c0,30.872,25.128,56,56,56h168c30.872,0,56-25.128,56-56V70.528c9.288-3.312,16-12.112,16-22.528V32C480,27.576,476.424,24,472,24
			z M177,368h61.984c-2.52,9.792-9.624,17.688-18.832,21.504c-1.568,0.648-3.168,1.144-4.792,1.536
			c-0.408,0.096-0.8,0.232-1.216,0.32c-4.064,0.808-8.24,0.808-12.304,0c-0.416-0.08-0.808-0.216-1.216-0.32
			c-1.624-0.392-3.224-0.888-4.792-1.536C186.624,385.696,179.528,377.792,177,368z M448,424c0,22.056-17.944,40-40,40H240
			c-22.056,0-40-17.944-40-40v-16.68c0.208,0.032,0.424,0.024,0.632,0.056C203.04,407.744,205.488,408,208,408
			c2.512,0,4.96-0.256,7.368-0.624c0.208-0.032,0.424-0.016,0.632-0.056V424c0,13.232,10.768,24,24,24h168c13.232,0,24-10.768,24-24
			V72h16V424z M464,48c0,4.416-3.584,8-8,8h-32c-4.416,0-8-3.584-8-8v-8h48V48z"/>
	</g>
</g>
<g>
	<g>
		<rect x="71.716" y="196.008" transform="matrix(0.7071 -0.7071 0.7071 0.7071 -114.9673 130.4602)" width="56.559" height="16"/>
	</g>
</g>
<g>
	<g>
		<rect x="113.361" y="200.008" transform="matrix(0.7071 -0.7071 0.7071 0.7071 -107.2533 157.0826)" width="45.256" height="16"/>
	</g>
</g>
<g>
</g>
<g>
</g>
<g>
</g>
<g>
</g>
<g>
</g>
<g>
</g>
<g>
</g>
<g>
</g>
<g>
</g>
<g>
</g>
<g>
</g>
<g>
</g>
<g>
</g>
<g>
</g>
<g>
</g>
</svg>
