<?xml version="1.0" encoding="iso-8859-1"?>
<!-- Generator: Adobe Illustrator 19.0.0, SVG Export Plug-In . SVG Version: 6.00 Build 0)  -->
<svg fill="#273582" width="128" height="128" xmlns="http://www.w3.org/2000/svg" xmlns:xlink="http://www.w3.org/1999/xlink" x="0px" y="0px"
	 viewBox="0 0 480 480" style="enable-background:new 0 0 480 480;" xml:space="preserve">
<g>
	<g>
		<path d="M277.656,234.344l-32-32c-3.128-3.128-8.184-3.128-11.312,0l-32,32c-3.128,3.128-3.128,8.184,0,11.312l32,32
			c1.56,1.56,3.608,2.344,5.656,2.344c2.048,0,4.096-0.784,5.656-2.344l32-32C280.784,242.528,280.784,237.472,277.656,234.344z
			 M240,260.688L219.312,240L240,219.312L260.688,240L240,260.688z"/>
	</g>
</g>
<g>
	<g>
		<path d="M472,0H320H160H8C3.584,0,0,3.584,0,8v152v160v152c0,4.416,3.584,8,8,8h152h160h152c4.416,0,8-3.584,8-8V320V160V8
			C480,3.584,476.416,0,472,0z M16,180.848L69.24,240L16,299.152V180.848z M25.96,168h114.728l-60.384,60.376L25.96,168z
			 M140.688,312H25.96l54.344-60.376L140.688,312z M152,464H16V328h136V464z M152,240v60.688L91.312,240L152,179.312V240z M152,152
			H16V16h136V152z M299.152,16L240,69.24L180.848,16H299.152z M171.312,240L240,171.312L308.688,240L240,308.688L171.312,240z
			 M300.688,328L240,388.688L179.312,328H240H300.688z M179.312,152L240,91.312L300.688,152H240H179.312z M168,25.96l60.376,54.344
			L168,140.688V25.96z M168,168h52.688L168,220.688V168z M168,259.312L220.688,312H168V259.312z M168,339.312l60.376,60.384
			L168,454.04V339.312z M180.848,464L240,410.76L299.152,464H180.848z M312,454.04l-60.376-54.344L312,339.312V454.04z M312,312
			h-52.688L312,259.312V312z M312,220.688L259.312,168H312V220.688z M312,140.688l-60.376-60.384L312,25.96V140.688z M328,240
			v-60.688L388.688,240L328,300.688V240z M339.312,168H454.04l-54.344,60.376L339.312,168z M454.04,312H339.312l60.384-60.376
			L454.04,312z M464,464H328V328h136V464z M464,299.152L410.76,240L464,180.848V299.152z M464,152H328V16h136V152z"/>
	</g>
</g>
<g>
</g>
<g>
</g>
<g>
</g>
<g>
</g>
<g>
</g>
<g>
</g>
<g>
</g>
<g>
</g>
<g>
</g>
<g>
</g>
<g>
</g>
<g>
</g>
<g>
</g>
<g>
</g>
<g>
</g>
</svg>
