<?xml version="1.0" encoding="iso-8859-1"?>
<!-- Generator: Adobe Illustrator 19.0.0, SVG Export Plug-In . SVG Version: 6.00 Build 0)  -->
<svg fill="#273582" width="128" height="128" xmlns="http://www.w3.org/2000/svg" xmlns:xlink="http://www.w3.org/1999/xlink" x="0px" y="0px"
	 viewBox="0 0 480 480" style="enable-background:new 0 0 480 480;" xml:space="preserve">
<g>
	<g>
		<path d="M472,0H328H184H40c-4.416,0-8,3.576-8,8v144v80h16v-72h128v128h-24v16h24v136c0,4.424,3.584,8,8,8h144h144
			c4.416,0,8-3.576,8-8V296V152V8C480,3.576,476.416,0,472,0z M176,144H48V16h128V144z M320,432H192V304h128V432z M320,288H192V160
			h128V288z M320,144H192V16h128V144z M464,432H336V304h128V432z M464,288H336V160h128V288z M464,144H336V16h128V144z"/>
	</g>
</g>
<g>
	<g>
		<rect x="201.362" y="40.007" transform="matrix(0.7071 -0.7071 0.7071 0.7071 31.659 172.4455)" width="45.256" height="16"/>
	</g>
</g>
<g>
	<g>
		<rect x="199.432" y="72.004" transform="matrix(0.7071 -0.7071 0.7071 0.7071 18.4067 204.4457)" width="113.119" height="16"/>
	</g>
</g>
<g>
	<g>
		<rect x="265.359" y="104.007" transform="matrix(0.7071 -0.7071 0.7071 0.7071 5.1485 236.4434)" width="45.256" height="16"/>
	</g>
</g>
<g>
	<g>
		<rect x="345.359" y="184.007" transform="matrix(0.7071 -0.7071 0.7071 0.7071 -27.9886 316.4434)" width="45.256" height="16"/>
	</g>
</g>
<g>
	<g>
		<rect x="343.428" y="216.004" transform="matrix(0.7071 -0.7071 0.7071 0.7071 -41.241 348.4435)" width="113.119" height="16"/>
	</g>
</g>
<g>
	<g>
		<rect x="409.356" y="248.007" transform="matrix(0.7071 -0.7071 0.7071 0.7071 -54.4993 380.4407)" width="45.256" height="16"/>
	</g>
</g>
<g>
	<g>
		<rect x="201.359" y="328.004" transform="matrix(0.7071 -0.7071 0.7071 0.7071 -171.9863 256.7957)" width="45.256" height="16"/>
	</g>
</g>
<g>
	<g>
		
			<rect x="199.429" y="360.001" transform="matrix(0.7071 -0.7071 0.7071 0.7071 -185.2387 288.7957)" width="113.119" height="16"/>
	</g>
</g>
<g>
	<g>
		<rect x="265.356" y="392.004" transform="matrix(0.7071 -0.7071 0.7071 0.7071 -198.4969 320.7935)" width="45.256" height="16"/>
	</g>
</g>
<g>
	<g>
		<path d="M168,438.24V432c0-17.608-6.856-34.168-19.312-46.624l-22.064-22.064c-7.408-7.416-12.448-22.504-14.04-35.312H144v-16
			h-20.32c7.632-8.504,12.32-19.696,12.32-32c0-26.472-21.528-48-48-48s-48,21.528-48,48c0,12.304,4.688,23.496,12.32,32H32v16
			h31.416c-1.592,12.808-6.624,27.896-14.04,35.312l-22.064,22.064C14.856,397.832,8,414.392,8,432v6.24
			c-4.872,4.4-8,10.696-8,17.76v16c0,4.424,3.584,8,8,8h160c4.416,0,8-3.576,8-8v-16C176,448.936,172.872,442.64,168,438.24z
			 M56,280c0-17.648,14.352-32,32-32s32,14.352,32,32s-14.352,32-32,32S56,297.648,56,280z M38.624,396.688l22.064-22.064
			C71.384,363.92,77.88,344.192,79.56,328h16.872c1.68,16.192,8.176,35.92,18.872,46.624l22.064,22.064
			C146.808,406.128,152,418.664,152,432H24C24,418.664,29.192,406.128,38.624,396.688z M160,464H16v-8c0-3.08,1.8-5.664,4.352-7.008
			c0.368-0.192,0.736-0.344,1.112-0.48C22.272,448.24,23.104,448,24,448h128c0.896,0,1.728,0.24,2.536,0.512
			c0.376,0.136,0.744,0.288,1.112,0.48C158.2,450.336,160,452.92,160,456V464z"/>
	</g>
</g>
<g>
</g>
<g>
</g>
<g>
</g>
<g>
</g>
<g>
</g>
<g>
</g>
<g>
</g>
<g>
</g>
<g>
</g>
<g>
</g>
<g>
</g>
<g>
</g>
<g>
</g>
<g>
</g>
<g>
</g>
</svg>
