<?xml version="1.0" encoding="iso-8859-1"?>
<!-- Generator: Adobe Illustrator 19.0.0, SVG Export Plug-In . SVG Version: 6.00 Build 0)  -->
<svg fill="#273582" width="128" height="128" xmlns="http://www.w3.org/2000/svg" xmlns:xlink="http://www.w3.org/1999/xlink" x="0px" y="0px"
	 viewBox="0 0 480 480" style="enable-background:new 0 0 480 480;" xml:space="preserve">
<g>
	<g>
		<path d="M176,80H80c-4.424,0-8,3.576-8,8v72c0,4.424,3.576,8,8,8h96c4.424,0,8-3.576,8-8V88C184,83.576,180.424,80,176,80z
			 M168,152H88V96h80V152z"/>
	</g>
</g>
<g>
	<g>
		<path d="M176,312H80c-4.424,0-8,3.576-8,8v72c0,4.424,3.576,8,8,8h96c4.424,0,8-3.576,8-8v-72C184,315.576,180.424,312,176,312z
			 M168,384H88v-56h80V384z"/>
	</g>
</g>
<g>
	<g>
		<path d="M360,96c-17.648,0-32,14.352-32,32s14.352,32,32,32s32-14.352,32-32S377.648,96,360,96z M360,144c-8.824,0-16-7.176-16-16
			c0-8.824,7.176-16,16-16c8.824,0,16,7.176,16,16C376,136.824,368.824,144,360,144z"/>
	</g>
</g>
<g>
	<g>
		<path d="M360,320c-17.648,0-32,14.352-32,32s14.352,32,32,32s32-14.352,32-32S377.648,320,360,320z M360,368
			c-8.824,0-16-7.176-16-16c0-8.824,7.176-16,16-16c8.824,0,16,7.176,16,16C376,360.824,368.824,368,360,368z"/>
	</g>
</g>
<g>
	<g>
		<path d="M472,0H248h-64H72H8C3.576,0,0,3.576,0,8v136v192v136c0,4.424,3.576,8,8,8h64h112h64h224c4.424,0,8-3.576,8-8V240V8
			C480,3.576,476.424,0,472,0z M80,16h96v32H80V16z M16,16h48v32c-13.232,0-24,10.768-24,24v64H16V16z M16,152h24v176H16V152z
			 M64,464H16V344h24v64c0,13.232,10.768,24,24,24V464z M176,464H80v-32h96V464z M72,416h-8c-4.416,0-8-3.584-8-8v-72V144V72
			c0-4.416,3.584-8,8-8h8h112h8c4.416,0,8,3.584,8,8v72v192v72c0,4.416-3.584,8-8,8h-8H72z M240,464h-48v-32
			c13.232,0,24-10.768,24-24v-64h24V464z M240,240v88h-24V152h24V240z M240,136h-24V72c0-13.232-10.768-24-24-24V16h48V136z M256,16
			h96v48.552c-28.896,3.624-51.816,26.552-55.448,55.448H256V16z M360,80c26.472,0,48,21.528,48,48s-21.528,48-48,48
			s-48-21.528-48-48S333.528,80,360,80z M256,144v-8h40.552c3.624,28.896,26.552,51.816,55.448,55.448V232h-96V144z M256,336v-88h96
			v40.552c-28.896,3.632-51.816,26.552-55.448,55.448H256V336z M352,464h-96V360h40.552c3.624,28.896,26.552,51.816,55.448,55.448
			V464z M312,352c0-26.472,21.528-48,48-48s48,21.528,48,48s-21.528,48-48,48S312,378.472,312,352z M464,464h-96v-48.552
			c28.896-3.624,51.816-26.552,55.448-55.448H464V464z M464,344h-40.552c-3.624-28.896-26.552-51.816-55.448-55.448V248h96V344z
			 M464,232h-96v-40.552c28.896-3.624,51.816-26.552,55.448-55.448H464V232z M464,120h-40.552
			C419.824,91.104,396.896,68.184,368,64.552V16h96V120z"/>
	</g>
</g>
<g>
</g>
<g>
</g>
<g>
</g>
<g>
</g>
<g>
</g>
<g>
</g>
<g>
</g>
<g>
</g>
<g>
</g>
<g>
</g>
<g>
</g>
<g>
</g>
<g>
</g>
<g>
</g>
<g>
</g>
</svg>
