<?xml version="1.0" encoding="iso-8859-1"?>
<!-- Generator: Adobe Illustrator 19.0.0, SVG Export Plug-In . SVG Version: 6.00 Build 0)  -->
<svg fill="#273582" width="128" height="128" xmlns="http://www.w3.org/2000/svg" xmlns:xlink="http://www.w3.org/1999/xlink" x="0px" y="0px"
	 viewBox="0 0 484.96 484.96" style="enable-background:new 0 0 484.96 484.96;" xml:space="preserve">
<g>
	<g>
		<path d="M434.252,131.696c26.472,0,48-21.528,48-48c0-14.448-6.44-27.392-16.568-36.192l17.024-38.856l-14.656-6.424
			l-16.16,36.872c-5.464-2.168-11.408-3.4-17.64-3.4h-72v16h72c3.952,0,7.688,0.816,11.184,2.128l-27.112,61.872H312.86L265.66,0
			l-14.816,6.048l44.792,109.784c-25.248,1.368-45.384,22.28-45.384,47.864c0,26.472,21.528,48,48,48h36.496l20.008,49.048
			l-6.552,14.952h-49.952c-26.472,0-48,21.528-48,48s21.528,48,48,48h7.88l-15.008,34.248c-9.68-1.032-19.44,3.84-24.032,13.056
			l-8.344,16.696H146.252c-17.648,0-32-14.352-32-32v-32h4.664h3.336c48.52,0,88-39.48,88-88v-48v-96v-40v-8
			c0-2.304-0.096-4.6-0.272-6.88c-0.024-0.304-0.064-0.6-0.088-0.896c-0.024-0.256-0.048-0.504-0.072-0.76
			c-0.064-0.632-0.168-1.248-0.24-1.88c-0.128-1.072-0.224-2.152-0.392-3.216c-0.104-0.672-0.248-1.336-0.368-2
			c-0.072-0.392-0.144-0.784-0.224-1.184c-0.104-0.552-0.216-1.104-0.336-1.656c-0.128-0.592-0.232-1.184-0.376-1.768
			c-0.272-1.144-0.592-2.264-0.904-3.384c-0.072-0.264-0.144-0.52-0.216-0.784c-0.168-0.592-0.296-1.192-0.48-1.776
			c-0.016-0.048-0.048-0.08-0.064-0.128c-0.008-0.032-0.024-0.056-0.032-0.088c-5.912-18.888-18.064-35.208-34.48-46.328
			c-0.216-0.152-0.44-0.304-0.656-0.448c-1.936-1.288-3.936-2.504-5.984-3.64c-0.48-0.272-0.952-0.544-1.44-0.808
			c-1.888-1-3.816-1.928-5.792-2.792c-0.56-0.248-1.104-0.536-1.672-0.768c-2.24-0.936-4.528-1.784-6.872-2.544
			c-0.032-0.008-0.064,0-0.088-0.008c-8.512-2.744-17.552-4.264-26.952-4.264H93.588h-3.336c-48.52,0-88,39.48-88,88v48v96v40v8
			c0,2.304,0.096,4.6,0.272,6.88c0.024,0.304,0.064,0.6,0.088,0.896c0.024,0.256,0.048,0.504,0.072,0.76
			c0.064,0.632,0.168,1.248,0.24,1.88c0.128,1.072,0.224,2.152,0.392,3.216c0.104,0.672,0.248,1.336,0.368,2
			c0.072,0.392,0.144,0.784,0.224,1.184c0.104,0.552,0.216,1.104,0.336,1.656c0.128,0.592,0.232,1.184,0.376,1.768
			c0.272,1.144,0.592,2.264,0.904,3.384c0.072,0.264,0.144,0.52,0.216,0.784c0.168,0.592,0.296,1.192,0.48,1.776
			c0.016,0.048,0.048,0.08,0.064,0.128c0.008,0.024,0.024,0.056,0.032,0.08c5.912,18.888,18.064,35.208,34.48,46.328
			c0.216,0.152,0.44,0.296,0.664,0.44c1.936,1.288,3.936,2.504,5.984,3.64c0.48,0.272,0.952,0.544,1.44,0.808
			c1.888,1,3.816,1.928,5.792,2.792c0.56,0.248,1.104,0.536,1.672,0.768c2.24,0.936,4.528,1.784,6.872,2.544
			c0.032,0.008,0.072,0.008,0.104,0.016c8.496,2.76,17.536,4.272,26.928,4.272h8v32c0,26.472,21.528,48,48,48H251.22
			c-1.352,4.64-1.296,9.568,0.264,14.248c2.024,6.08,6.304,11.008,12.04,13.872c3.432,1.712,7.088,2.528,10.688,2.528
			c8.816,0,17.312-4.864,21.504-13.272l8.696-17.376h17.84c26.472,0,48-21.528,48-48c0-23.72-17.312-43.424-39.952-47.272
			l28.368-64.728h8.72l50.184,123.016c-2.632,2.52-4.736,5.552-6.016,9.08c-2.184,6.024-1.896,12.544,0.824,18.344l13.568,28.984
			c2.72,5.808,7.536,10.208,13.56,12.392c2.664,0.968,5.432,1.448,8.184,1.448c3.472,0,6.928-0.76,10.16-2.28
			c5.808-2.712,10.208-7.528,12.392-13.56c2.184-6.032,1.888-12.544-0.832-18.352l-13.56-28.984
			c-2.72-5.808-7.536-10.208-13.56-12.392c-3.304-1.192-6.744-1.576-10.136-1.296l-47.488-116.4h49.584c26.472,0,48-21.528,48-48
			s-21.528-48-48-48h-33.52l28.048-64H434.252z M458.74,63.344c4.616,5.552,7.512,12.584,7.512,20.352
			c0,17.088-13.504,30.976-30.384,31.84L458.74,63.344z M194.252,283.696c0,33.144-22.544,61.048-53.08,69.392
			c27.08-30.152,43.008-68.68,44.856-109.392h8.224V283.696z M194.252,131.696H171.26c2.904-11.232,11.76-20.088,22.992-22.992
			V131.696z M193.068,79.144c0.144,0.8,0.272,1.6,0.384,2.4c0.016,0.088,0.024,0.168,0.04,0.256c0.448,3.248,0.76,6.536,0.76,9.896
			v0.72c-20.056,3.384-35.888,19.224-39.28,39.28h-16.224c3.52-28.232,25.456-50.824,53.712-55.144
			C192.644,77.424,192.916,78.264,193.068,79.144z M178.268,46.72c0.32,0.4,0.656,0.776,0.96,1.184
			c1.304,1.688,2.52,3.424,3.656,5.2c0.984,1.544,1.928,3.104,2.792,4.72c0.576,1.064,1.12,2.144,1.632,3.232
			c0.032,0.064,0.064,0.128,0.096,0.2c-34.696,6.496-61.24,35.104-64.752,70.44h-16.064C109.98,91.28,138.844,56.856,178.268,46.72z
			 M148.068,24.56c3.072,1.176,6.04,2.528,8.864,4.072c0.592,0.328,1.144,0.704,1.728,1.048c2.128,1.24,4.16,2.608,6.128,4.048
			c0.152,0.112,0.304,0.224,0.456,0.344c-41.712,14.64-71.432,53.08-74.64,97.624H74.5c2.904-46.104,30.688-87.4,72.672-107.456
			C147.468,24.344,147.772,24.448,148.068,24.56z M96.572,19.696h25.68c0.216,0,0.416,0.032,0.632,0.032
			c-37.656,24.936-61.792,66.4-64.336,111.968H42.452C44.604,88.696,64.028,48.376,96.572,19.696z M18.252,91.696
			c0-33.144,22.544-61.048,53.08-69.392c-27.08,30.152-43.008,68.68-44.864,109.392h-8.216V91.696z M18.252,147.696h16h32h32h32h32
			h32v80h-16h-32h-32h-32h-32h-32V147.696z M18.252,243.696h22.992c-2.904,11.232-11.76,20.088-22.992,22.992V243.696z
			 M19.436,296.248c-0.144-0.8-0.272-1.6-0.384-2.4c-0.016-0.088-0.024-0.168-0.04-0.256c-0.448-3.248-0.76-6.536-0.76-9.896v-0.72
			c20.056-3.392,35.888-19.224,39.28-39.28h16.224c-3.52,28.232-25.456,50.824-53.712,55.144
			C19.86,297.968,19.588,297.128,19.436,296.248z M34.236,328.672c-0.32-0.4-0.656-0.776-0.96-1.184
			c-1.304-1.688-2.52-3.424-3.656-5.2c-0.984-1.544-1.928-3.104-2.792-4.72c-0.576-1.064-1.12-2.144-1.632-3.232
			c-0.032-0.064-0.064-0.128-0.096-0.2c34.696-6.496,61.24-35.104,64.752-70.44h16.064
			C102.524,284.112,73.66,318.536,34.236,328.672z M64.436,350.832c-3.072-1.176-6.04-2.528-8.864-4.072
			c-0.592-0.328-1.144-0.704-1.728-1.048c-2.128-1.24-4.16-2.608-6.128-4.048c-0.152-0.112-0.304-0.224-0.456-0.344
			c41.712-14.64,71.424-53.072,74.632-97.624h16.104c-2.904,46.104-30.688,87.4-72.672,107.456
			C65.036,351.048,64.732,350.944,64.436,350.832z M90.252,355.696c-0.216,0-0.416-0.032-0.632-0.032
			c37.656-24.936,61.792-66.4,64.336-111.968h16.096c-2.152,43-21.576,83.32-54.12,112H90.252z M281.412,461.92
			c-1.976,3.944-6.792,5.536-10.736,3.584c-1.912-0.952-3.336-2.6-4.008-4.624s-0.52-4.192,0.432-6.112l1.536-3.072h17.888
			L281.412,461.92z M295.716,433.296l-1.192,2.4h-17.888l4.768-9.552c1.4-2.8,4.232-4.424,7.168-4.424c1.2,0,2.416,0.272,3.56,0.84
			C296.076,424.536,297.684,429.344,295.716,433.296z M354.252,403.696c0,17.648-14.352,32-32,32h-10.464
			c2.112-8.2-0.376-16.84-6.248-22.776l18.008-41.088C340.58,372.528,354.252,386.496,354.252,403.696z M313.148,355.696h-14.896
			c-17.648,0-32-14.352-32-32s14.352-32,32-32h42.944L313.148,355.696z M426.596,429.248c0.728-2.008,2.2-3.616,4.136-4.52
			c1.072-0.504,2.224-0.76,3.376-0.76c0.92,0,1.84,0.16,2.728,0.48c2.024,0.728,3.624,2.192,4.536,4.128l13.56,28.984
			c0.904,1.936,1,4.112,0.28,6.12c-0.728,2.008-2.192,3.608-4.128,4.512c-4,1.864-8.776,0.136-10.64-3.848l-13.568-28.984
			C425.972,433.424,425.876,431.256,426.596,429.248z M298.252,195.696c-17.648,0-32-14.352-32-32s14.352-32,32-32h3.856l26.112,64
			H298.252z M363.708,240.328l-11.68-28.632h24.224L363.708,240.328z M434.252,211.696c17.648,0,32,14.352,32,32s-14.352,32-32,32
			H378.14l-6.008-14.728l21.592-49.272H434.252z M383.268,195.696H345.5l-26.112-64h91.928L383.268,195.696z"/>
	</g>
</g>
<g>
</g>
<g>
</g>
<g>
</g>
<g>
</g>
<g>
</g>
<g>
</g>
<g>
</g>
<g>
</g>
<g>
</g>
<g>
</g>
<g>
</g>
<g>
</g>
<g>
</g>
<g>
</g>
<g>
</g>
</svg>
