<?xml version="1.0" encoding="iso-8859-1"?>
<!-- Generator: Adobe Illustrator 19.0.0, SVG Export Plug-In . SVG Version: 6.00 Build 0)  -->
<svg fill="#273582" width="128" height="128" xmlns="http://www.w3.org/2000/svg" xmlns:xlink="http://www.w3.org/1999/xlink" x="0px" y="0px"
	 viewBox="0 0 480 480" style="enable-background:new 0 0 480 480;" xml:space="preserve">
<g>
	<g>
		<path d="M463.824,408.46c-44.312,1-111.472-6.392-179.744-46.88c-43.448-25.768-75.008-57.8-97.688-88.272l44.328-68.504
			c0.184-0.28,0.272-0.592,0.416-0.888c0.096-0.2,0.248-0.368,0.328-0.576c0.032-0.08,0.024-0.16,0.056-0.24
			c0.184-0.52,0.28-1.048,0.352-1.584c0.032-0.216,0.104-0.432,0.112-0.648c0.04-0.752-0.016-1.504-0.184-2.248
			c-0.016-0.072-0.056-0.128-0.08-0.2c-0.16-0.616-0.368-1.224-0.68-1.792c-0.024-0.04-0.048-0.064-0.072-0.096
			c-0.136-0.232-0.328-0.432-0.48-0.656c-0.288-0.408-0.576-0.808-0.936-1.152c-0.064-0.064-0.096-0.136-0.16-0.2l-88-80
			c-3.056-2.768-7.712-2.768-10.768,0l-88,80c-0.064,0.056-0.096,0.136-0.16,0.2c-0.352,0.344-0.64,0.744-0.936,1.152
			c-0.16,0.224-0.352,0.416-0.48,0.656c-0.024,0.04-0.056,0.064-0.072,0.096c-0.312,0.568-0.52,1.176-0.68,1.792
			c-0.016,0.072-0.064,0.128-0.08,0.2c-0.176,0.736-0.232,1.496-0.184,2.248c0.008,0.216,0.08,0.432,0.112,0.648
			c0.072,0.536,0.168,1.064,0.352,1.584c0.024,0.08,0.024,0.16,0.056,0.24c0.08,0.208,0.232,0.376,0.328,0.576
			c0.144,0.296,0.232,0.608,0.416,0.888l84.8,131.056l-36.232,43.48c-1.992,2.392-2.416,5.712-1.104,8.512
			c1.312,2.808,4.136,4.608,7.24,4.608h80c3.104,0,5.928-1.8,7.248-4.608c1.32-2.808,0.888-6.128-1.104-8.512l-36.232-43.48
			l31.232-48.272c23.472,30.48,55.48,62.08,98.768,87.752c67.712,40.152,134.328,49.2,180.608,49.2c2.616,0,5.168-0.024,7.648-0.08
			L463.824,408.46z M144,138.548l59.312,53.912H144V138.548z M128,138.548v53.912H68.688L128,138.548z M62.704,208.46H128v100.912
			L62.704,208.46z M158.92,376.46h-45.84L136,348.956L158.92,376.46z M144,309.372v-73.176c6.248,11.736,13.792,24.44,23,37.632
			L144,309.372z M176.448,259.22c-12.528-18.688-21.728-36.216-28.28-50.76h61.12L176.448,259.22z"/>
	</g>
</g>
<g>
	<g>
		<path d="M400,40.46c-22.056,0-40,17.944-40,40c0,22.056,17.944,40,40,40c22.056,0,40-17.944,40-40
			C440,58.404,422.056,40.46,400,40.46z M400,104.46c-13.232,0-24-10.768-24-24s10.768-24,24-24s24,10.768,24,24
			S413.232,104.46,400,104.46z"/>
	</g>
</g>
<g>
	<g>
		<rect x="392" y="0.46" width="16" height="24"/>
	</g>
</g>
<g>
	<g>
		<rect x="436.705" y="16.443" transform="matrix(0.7071 -0.7071 0.7071 0.7071 113.9373 323.9551)" width="22.624" height="16"/>
	</g>
</g>
<g>
	<g>
		<rect x="456" y="64.46" width="24" height="16"/>
	</g>
</g>
<g>
	<g>
		<rect x="447.997" y="109.155" transform="matrix(0.7071 -0.7071 0.7071 0.7071 48.3757 357.7222)" width="16" height="22.624"/>
	</g>
</g>
<g>
	<g>
		<rect x="332.682" y="112.462" transform="matrix(0.7071 -0.7071 0.7071 0.7071 15.5738 278.522)" width="22.624" height="16"/>
	</g>
</g>
<g>
	<g>
		<rect x="344.001" y="13.147" transform="matrix(0.7071 -0.7071 0.7071 0.7071 85.8034 256.0661)" width="16" height="22.624"/>
	</g>
</g>
<g>
	<g>
		<rect x="392" y="136.46" width="16" height="24"/>
	</g>
</g>
<g>
	<g>
		<path d="M48,408.3c-0.096,4.536-0.656,9.072-1.664,13.48l15.6,3.56c1.248-5.464,1.944-11.088,2.064-16.712L48,408.3z"/>
	</g>
</g>
<g>
	<g>
		<path d="M24.216,457.444c-3.688,3.048-7.696,5.712-11.928,7.928l7.424,14.168c5.208-2.728,10.16-6.016,14.696-9.768
			L24.216,457.444z"/>
	</g>
</g>
<g>
	<g>
		<path d="M41.696,435.172l-0.816,1.648c-1.88,3.68-4.136,7.184-6.688,10.44l12.576,9.888c3.192-4.056,6-8.448,8.352-13.04l1-2
			L41.696,435.172z"/>
	</g>
</g>
<g>
	<g>
		<path d="M216,408.3c-0.096,4.536-0.656,9.072-1.664,13.48l15.6,3.56c1.248-5.464,1.944-11.088,2.064-16.712L216,408.3z"/>
	</g>
</g>
<g>
	<g>
		<path d="M209.696,435.172l-0.816,1.648c-1.88,3.68-4.136,7.184-6.688,10.44l12.576,9.888c3.192-4.056,6-8.448,8.352-13.04l1-2
			L209.696,435.172z"/>
	</g>
</g>
<g>
	<g>
		<path d="M192.216,457.444c-3.688,3.048-7.696,5.712-11.928,7.928l7.424,14.168c5.208-2.728,10.16-6.016,14.696-9.768
			L192.216,457.444z"/>
	</g>
</g>
<g>
	<g>
		<path d="M128,408.3c-0.096,4.536-0.656,9.072-1.664,13.48l15.6,3.56c1.248-5.464,1.944-11.088,2.064-16.712L128,408.3z"/>
	</g>
</g>
<g>
	<g>
		<path d="M121.696,435.172l-0.816,1.648c-1.88,3.68-4.136,7.184-6.688,10.44l12.576,9.888c3.192-4.056,6-8.448,8.352-13.04l1-2
			L121.696,435.172z"/>
	</g>
</g>
<g>
	<g>
		<path d="M104.216,457.444c-3.688,3.048-7.696,5.712-11.928,7.928l7.424,14.168c5.208-2.728,10.16-6.016,14.696-9.768
			L104.216,457.444z"/>
	</g>
</g>
<g>
	<g>
		<path d="M315.632,56.668c-2.992-0.344-5.96-0.272-8.872,0.224C299.776,42.004,286.536,32.46,272,32.46s-27.768,9.544-34.76,24.44
			c-0.656-0.112-1.32-0.12-1.976-0.192c-5.104-8.864-13.736-14.872-23.64-16.032c-2.992-0.344-5.952-0.272-8.864,0.224
			c-6.992-14.896-20.224-24.44-34.76-24.44c-12.84,0-24.648,7.464-32.048,19.464c-5.136-6.2-12.264-10.304-20.328-11.256
			c-2.992-0.336-5.952-0.272-8.864,0.224C99.768,10.004,86.536,0.46,72,0.46S44.232,10.004,37.24,24.9
			c-2.912-0.504-5.88-0.568-8.872-0.232C12.192,26.572,0,40.932,0,58.06c0,12.352,10.048,22.4,22.392,22.4H97.04
			c2.776,9.224,11.24,16,21.352,16h82.648c2.776,9.224,11.24,16,21.352,16H321.6c12.352,0,22.4-10.048,22.4-22.4
			C344,72.924,331.808,58.564,315.632,56.668z M107.248,48.58c-0.792,0.712-1.56,1.448-2.28,2.24
			c-0.632,0.688-1.208,1.4-1.768,2.136c-0.392,0.512-0.752,1.04-1.112,1.568c-1.24,1.816-2.32,3.752-3.2,5.808
			c-0.032,0.08-0.08,0.16-0.112,0.24c-0.464,1.12-0.848,2.272-1.2,3.448c-0.04,0.152-0.112,0.288-0.152,0.44H22.392
			c-3.528,0-6.392-2.864-6.392-6.4c0-8.872,6.256-16.56,14.224-17.496c0.592-0.072,1.176-0.104,1.76-0.104
			c2.264,0,4.504,0.512,6.704,1.528c2.112,0.968,4.544,1,6.664,0.032c2.12-0.96,3.72-2.8,4.376-5.032
			C53.336,24.708,62.288,16.46,72,16.46s18.664,8.248,22.272,20.528c0.656,2.232,2.256,4.072,4.376,5.032s4.552,0.936,6.664-0.032
			c2.768-1.28,5.616-1.76,8.448-1.432c1.656,0.192,3.248,0.672,4.72,1.4c-0.016,0.008-0.032,0.016-0.04,0.016
			c-1.592,0.52-3.096,1.208-4.568,1.976c-0.528,0.272-1.04,0.568-1.552,0.872c-1.016,0.608-1.992,1.272-2.936,1.992
			C108.64,47.372,107.936,47.956,107.248,48.58z M207.576,68.42c-0.04,0.048-0.064,0.096-0.104,0.144
			c-1.32,1.664-2.464,3.464-3.456,5.376c-0.08,0.152-0.144,0.312-0.216,0.464c-0.928,1.84-1.68,3.768-2.272,5.792
			c-0.024,0.096-0.08,0.176-0.104,0.272h-83.032C114.864,80.46,112,77.596,112,74.06c0-0.32,0.064-0.624,0.08-0.944
			c0.008-0.056,0.04-0.104,0.04-0.168c0.392-6.336,3.888-11.872,8.776-14.624c0.168-0.096,0.352-0.152,0.52-0.24
			c0.656-0.336,1.328-0.664,2.024-0.896c0.76-0.248,1.552-0.416,2.352-0.536c0.144-0.024,0.288-0.08,0.432-0.096
			c0.8-0.088,1.592-0.064,2.392-0.032c0.528,0.024,1.056,0.104,1.584,0.184c0.584,0.088,1.168,0.176,1.768,0.344
			c0.912,0.248,1.816,0.52,2.712,0.936c2.112,0.976,4.544,0.992,6.664,0.032c2.136-0.96,3.728-2.792,4.384-5.032
			c3.608-12.28,12.56-20.528,22.272-20.528c9.712,0,18.664,8.248,22.272,20.528c0.656,2.232,2.256,4.072,4.376,5.032
			s4.552,0.936,6.664-0.032c2.76-1.288,5.584-1.784,8.456-1.432c2.888,0.336,5.584,1.568,7.84,3.48
			c-0.04,0.024-0.08,0.056-0.12,0.08C213.648,62.164,210.312,65.012,207.576,68.42z M321.608,96.46h-99.216
			c-3.528,0-6.392-2.864-6.392-6.4c0-0.32,0.064-0.624,0.08-0.944c0.008-0.056,0.04-0.104,0.04-0.168
			c0.472-7.76,5.64-14.272,12.296-15.984c0.56-0.144,1.112-0.312,1.688-0.384c0.232-0.008,0.592-0.024,0.712-0.032
			c0.04,0,0.064-0.032,0.104-0.032c0.36-0.016,0.712-0.056,1.064-0.056c2.264,0,4.504,0.512,6.704,1.528
			c2.104,0.968,4.536,1,6.664,0.032c2.12-0.96,3.72-2.8,4.376-5.032c3.608-12.28,12.56-20.528,22.272-20.528
			c9.712,0,18.664,8.248,22.264,20.528c0.656,2.224,2.256,4.072,4.376,5.032c2.112,0.96,4.544,0.936,6.664-0.032
			c2.76-1.272,5.584-1.784,8.464-1.432C321.752,73.5,328,81.188,328,90.06C328,93.588,325.136,96.46,321.608,96.46z"/>
	</g>
</g>
<g>
</g>
<g>
</g>
<g>
</g>
<g>
</g>
<g>
</g>
<g>
</g>
<g>
</g>
<g>
</g>
<g>
</g>
<g>
</g>
<g>
</g>
<g>
</g>
<g>
</g>
<g>
</g>
<g>
</g>
</svg>
