<?xml version="1.0" encoding="iso-8859-1"?>
<!-- Generator: Adobe Illustrator 19.0.0, SVG Export Plug-In . SVG Version: 6.00 Build 0)  -->
<svg fill="#273582" width="128" height="128" xmlns="http://www.w3.org/2000/svg" xmlns:xlink="http://www.w3.org/1999/xlink" x="0px" y="0px"
	 viewBox="0 0 480 480" style="enable-background:new 0 0 480 480;" xml:space="preserve">
<g>
	<g>
		<path d="M216,293.472V260c0-2.128-0.84-4.16-2.344-5.656L184,224.688V172c0-4.424-3.576-8-8-8h-32c-4.424,0-8,3.576-8,8v52.688
			l-29.656,29.656C104.84,255.84,104,257.872,104,260v8H80c-2.128,0-4.16,0.84-5.656,2.344L36.688,308H8c-4.424,0-8,3.576-8,8v96
			c0,4.424,3.576,8,8,8h46.464l38.568,15.432C93.976,435.808,94.984,436,96,436h8v32c0,4.424,3.576,8,8,8h96c4.424,0,8-3.576,8-8
			v-33.472c9.288-3.312,16-12.112,16-22.528v-96C232,305.584,225.288,296.784,216,293.472z M120,276v-12.688l29.656-29.656
			C151.16,232.16,152,230.128,152,228v-48h16v48c0,2.128,0.84,4.16,2.344,5.656L200,263.312V292h-80V276z M200,460h-80v-24h80V460z
			 M216,324h-40v16h40v16h-40v16h40v16h-40v16h40v8c0,4.416-3.584,8-8,8h-96H97.536l-38.568-15.432
			C58.024,404.192,57.016,404,56,404H16v-80h24c2.128,0,4.16-0.84,5.656-2.344L83.312,284H104v16c0,4.424,3.576,8,8,8h96
			c4.416,0,8,3.584,8,8V324z"/>
	</g>
</g>
<g>
	<g>
		<path d="M472,308h-28.688l-37.656-37.656C404.16,268.84,402.128,268,400,268h-24v-8c0-1.824-0.616-3.576-1.752-5L344,217.192V172
			c0-4.424-3.576-8-8-8h-32c-4.424,0-8,3.576-8,8v45.192L265.752,255c-1.136,1.424-1.752,3.176-1.752,5v33.472
			c-9.288,3.312-16,12.112-16,22.528v96c0,10.416,6.712,19.216,16,22.528V468c0,4.424,3.576,8,8,8h96c4.424,0,8-3.576,8-8v-32h8
			c1.016,0,2.024-0.192,2.968-0.568L425.536,420H472c4.424,0,8-3.576,8-8v-96C480,311.576,476.424,308,472,308z M280,262.808
			L310.248,225c1.136-1.424,1.752-3.176,1.752-5v-40h16v40c0,1.824,0.616,3.576,1.752,5L360,262.808V276v16h-80V262.808z M360,460
			h-80v-24h80V460z M464,404h-40c-1.016,0-2.024,0.192-2.968,0.568L382.464,420H368h-96c-4.416,0-8-3.584-8-8v-8h40v-16h-40v-16h40
			v-16h-40v-16h40v-16h-40v-8c0-4.416,3.584-8,8-8h96c4.424,0,8-3.576,8-8v-16h20.688l37.656,37.656
			C435.84,323.16,437.872,324,440,324h24V404z"/>
	</g>
</g>
<g>
	<g>
		<rect x="232" y="4" width="16" height="40"/>
	</g>
</g>
<g>
	<g>
		<rect x="345.362" y="60.01" transform="matrix(0.7071 -0.7071 0.7071 0.7071 59.6913 280.1278)" width="45.256" height="16"/>
	</g>
</g>
<g>
	<g>
		<rect x="104" y="45.378" transform="matrix(0.7071 -0.7071 0.7071 0.7071 -15.2836 99.1142)" width="16" height="45.256"/>
	</g>
</g>
<g>
	<g>
		<path d="M408,156c-13.232,0-24,10.768-24,24s10.768,24,24,24s24-10.768,24-24S421.232,156,408,156z M408,188c-4.416,0-8-3.584-8-8
			s3.584-8,8-8c4.416,0,8,3.584,8,8S412.416,188,408,188z"/>
	</g>
</g>
<g>
	<g>
		<path d="M72,156c-13.232,0-24,10.768-24,24s10.768,24,24,24s24-10.768,24-24S85.232,156,72,156z M72,188c-4.416,0-8-3.584-8-8
			s3.584-8,8-8s8,3.584,8,8S76.416,188,72,188z"/>
	</g>
</g>
<g>
	<g>
		<path d="M448,84c-17.648,0-32,14.352-32,32s14.352,32,32,32s32-14.352,32-32S465.648,84,448,84z M448,132c-8.824,0-16-7.176-16-16
			c0-8.824,7.176-16,16-16c8.824,0,16,7.176,16,16S456.824,132,448,132z"/>
	</g>
</g>
<g>
	<g>
		<path d="M32,76C14.352,76,0,90.352,0,108s14.352,32,32,32s32-14.352,32-32S49.648,76,32,76z M32,124c-8.824,0-16-7.176-16-16
			c0-8.824,7.176-16,16-16s16,7.176,16,16S40.824,124,32,124z"/>
	</g>
</g>
<g>
	<g>
		<path d="M296,92c-13.232,0-24,10.768-24,24s10.768,24,24,24s24-10.768,24-24S309.232,92,296,92z M296,124c-4.416,0-8-3.584-8-8
			s3.584-8,8-8c4.416,0,8,3.584,8,8S300.416,124,296,124z"/>
	</g>
</g>
<g>
	<g>
		<path d="M184,92c-13.232,0-24,10.768-24,24s10.768,24,24,24s24-10.768,24-24S197.232,92,184,92z M184,124c-4.416,0-8-3.584-8-8
			s3.584-8,8-8s8,3.584,8,8S188.416,124,184,124z"/>
	</g>
</g>
<g>
	<g>
		<path d="M360,108c-13.232,0-24,10.768-24,24s10.768,24,24,24s24-10.768,24-24S373.232,108,360,108z M360,140c-4.416,0-8-3.584-8-8
			s3.584-8,8-8c4.416,0,8,3.584,8,8S364.416,140,360,140z"/>
	</g>
</g>
<g>
	<g>
		<path d="M120,108c-13.232,0-24,10.768-24,24s10.768,24,24,24s24-10.768,24-24S133.232,108,120,108z M120,140c-4.416,0-8-3.584-8-8
			s3.584-8,8-8s8,3.584,8,8S124.416,140,120,140z"/>
	</g>
</g>
<g>
</g>
<g>
</g>
<g>
</g>
<g>
</g>
<g>
</g>
<g>
</g>
<g>
</g>
<g>
</g>
<g>
</g>
<g>
</g>
<g>
</g>
<g>
</g>
<g>
</g>
<g>
</g>
<g>
</g>
</svg>
