<?xml version="1.0" encoding="iso-8859-1"?>
<!-- Generator: Adobe Illustrator 19.0.0, SVG Export Plug-In . SVG Version: 6.00 Build 0)  -->
<svg fill="#273582" width="128" height="128" xmlns="http://www.w3.org/2000/svg" xmlns:xlink="http://www.w3.org/1999/xlink" x="0px" y="0px"
	 viewBox="0 0 483.187 483.187" style="enable-background:new 0 0 483.187 483.187;" xml:space="preserve">
<g>
	<g>
		<path d="M368.992,342.796c3.704-4.424,6.08-9.832,6.792-15.728c1.616-13.344-5.896-26.36-18.264-31.648
			c-5.464-2.336-11.336-2.976-17.016-1.984c-1.976-5.416-5.48-10.184-10.224-13.752c-10.76-8.064-25.784-8.064-36.536,0
			c-4.752,3.56-8.248,8.328-10.224,13.744c-5.696-0.992-11.56-0.344-17.016,1.984c-12.36,5.288-19.872,18.296-18.272,31.648
			c0.712,5.896,3.088,11.312,6.792,15.728c-3.704,4.416-6.08,9.832-6.792,15.728c-1.616,13.36,5.896,26.368,18.256,31.648
			c5.464,2.336,11.328,2.984,17.016,1.984c1.976,5.416,5.48,10.184,10.224,13.752c1.48,1.112,3.064,2.032,4.68,2.84l-0.008,0.016
			c0.168,0.08,0.344,0.12,0.512,0.2c1.44,0.68,2.912,1.248,4.424,1.696c0.224,0.064,0.432,0.192,0.656,0.248v20.216
			c-6.208-3.656-14.192-5.52-23.992-5.52h-8c-4.416,0-8,3.584-8,8v8c0,26.544,13.464,40,40,40h8h8c26.536,0,40-13.456,40-40v-8
			c0-4.416-3.584-8-8-8h-8c-9.8,0-17.784,1.864-24,5.512v-20.304c3.64-0.984,7.144-2.56,10.272-4.912
			c4.752-3.56,8.248-8.328,10.224-13.744c5.688,1,11.56,0.352,17.016-1.984c12.368-5.28,19.88-18.296,18.272-31.64
			C375.08,352.62,372.704,347.212,368.992,342.796z M304,465.596c-17.72,0-24-6.28-24-24c17.696,0,23.976,6.264,24,23.92V465.596z
			 M344,441.596c0,17.72-6.28,24-24,24C320,447.876,326.288,441.596,344,441.596z M352.696,349.74
			c4.024,2.328,6.648,6.224,7.184,10.712c0.76,6.336-2.8,12.512-8.672,15.016c-4.144,1.776-8.84,1.456-12.864-0.872
			c-2.472-1.432-5.52-1.432-8,0c-2.48,1.432-4,4.072-4,6.928c0,4.656-2.072,8.88-5.688,11.584c-3.68,2.76-8.408,3.456-12.672,2.232
			c-0.408-0.12-0.808-0.28-1.208-0.44c-1.2-0.464-2.392-1-3.456-1.792c-3.616-2.712-5.688-6.936-5.688-11.592
			c0-2.856-1.52-5.504-4-6.928c-1.24-0.712-2.616-1.072-4-1.072c-1.384,0-2.768,0.36-4,1.072c-4.024,2.336-8.72,2.648-12.872,0.872
			c-5.864-2.504-9.432-8.68-8.672-15.016c0.544-4.488,3.168-8.384,7.192-10.712c2.48-1.432,4-4.072,4-6.928
			c0.016-2.872-1.504-5.512-3.984-6.944c-4.032-2.328-6.656-6.232-7.192-10.712c-0.76-6.336,2.808-12.512,8.672-15.016
			c4.144-1.776,8.84-1.456,12.864,0.872c2.472,1.424,5.52,1.44,8,0c2.48-1.432,4-4.072,4-6.928c0-4.656,2.072-8.88,5.688-11.584
			c5.104-3.832,12.232-3.824,17.336,0c3.616,2.712,5.688,6.936,5.688,11.592c0,2.856,1.52,5.504,4,6.928c2.48,1.424,5.528,1.424,8,0
			c4.024-2.328,8.72-2.648,12.864-0.872c5.872,2.504,9.432,8.68,8.672,15.024c-0.536,4.48-3.16,8.384-7.192,10.712
			c-2.48,1.432-4,4.072-4,6.936C348.696,345.668,350.224,348.308,352.696,349.74z"/>
	</g>
</g>
<g>
	<g>
		<path d="M196.504,392.148c5.688,1,11.552,0.352,17.016-1.984c12.368-5.28,19.88-18.296,18.272-31.64
			c-0.704-5.904-3.08-11.312-6.792-15.728c3.704-4.424,6.08-9.832,6.792-15.728c1.608-13.36-5.912-26.376-18.272-31.648
			c-5.464-2.336-11.328-2.976-17.016-1.984c-1.976-5.416-5.48-10.184-10.224-13.752c-10.76-8.064-25.784-8.064-36.536,0
			c-4.752,3.56-8.248,8.328-10.224,13.744c-5.688-0.992-11.56-0.344-17.016,1.984c-12.368,5.28-19.88,18.296-18.272,31.64
			c0.704,5.896,3.08,11.312,6.792,15.736c-3.704,4.416-6.08,9.832-6.792,15.728c-1.616,13.352,5.904,26.368,18.264,31.648
			c5.456,2.336,11.328,2.976,17.016,1.984c1.976,5.424,5.472,10.184,10.224,13.752c3.128,2.344,6.632,3.92,10.264,4.904v20.304
			c-6.216-3.648-14.2-5.512-24-5.512h-8c-4.416,0-8,3.584-8,8v8c0,26.544,13.456,40,40,40h8h8c26.544,0,40-13.456,40-40v-8
			c0-4.416-3.584-8-8-8h-8c-9.8,0-17.784,1.864-24,5.512v-20.216c0.224-0.064,0.424-0.184,0.648-0.248
			c1.504-0.44,2.976-1.008,4.408-1.688c0.176-0.08,0.368-0.12,0.544-0.208l-0.008-0.016c1.624-0.808,3.2-1.728,4.688-2.84
			C191.032,402.332,194.528,397.564,196.504,392.148z M136,441.596c17.72,0,24,6.28,24,24C142.28,465.596,136,459.316,136,441.596z
			 M200,441.596c0,17.72-6.28,24-24,24C176,447.876,182.28,441.596,200,441.596z M182.36,381.508c0,4.656-2.072,8.88-5.688,11.584
			c-1.064,0.8-2.256,1.336-3.456,1.8c-0.4,0.16-0.792,0.32-1.2,0.44c-4.272,1.224-8.992,0.528-12.672-2.232
			c-3.616-2.712-5.688-6.936-5.688-11.584c0-2.856-1.52-5.504-4-6.928c-1.24-0.712-2.616-1.072-4-1.072c-1.376,0-2.76,0.352-4,1.072
			c-4.032,2.336-8.72,2.648-12.872,0.872c-5.864-2.504-9.432-8.68-8.664-15.024c0.536-4.48,3.16-8.384,7.184-10.704
			c2.48-1.432,4-4.072,4-6.928c0-2.856-1.52-5.504-4-6.936c-4.032-2.328-6.656-6.232-7.192-10.712
			c-0.76-6.336,2.8-12.512,8.672-15.016c4.144-1.776,8.84-1.456,12.864,0.872c2.472,1.424,5.52,1.44,8,0c2.48-1.432,4-4.072,4-6.928
			c0-4.656,2.072-8.88,5.688-11.584c5.104-3.832,12.232-3.824,17.336,0c3.616,2.712,5.688,6.936,5.688,11.592
			c0,2.856,1.52,5.504,4,6.928s5.528,1.424,8,0c4.024-2.328,8.712-2.648,12.872-0.872c5.864,2.504,9.432,8.68,8.664,15.024
			c-0.536,4.48-3.16,8.384-7.192,10.712c-2.48,1.432-4,4.072-4,6.936c0.008,2.832,1.536,5.472,4.008,6.904
			c4.024,2.328,6.648,6.224,7.184,10.712c0.76,6.336-2.8,12.512-8.672,15.016c-4.144,1.776-8.84,1.456-12.864-0.872
			c-2.472-1.432-5.52-1.432-8,0C183.88,376.012,182.36,378.652,182.36,381.508z"/>
	</g>
</g>
<g>
	<g>
		<path d="M312,321.596c-13.232,0-24,10.768-24,24s10.768,24,24,24s24-10.768,24-24S325.232,321.596,312,321.596z M312,353.596
			c-4.408,0-8-3.592-8-8c0-4.408,3.592-8,8-8c4.408,0,8,3.592,8,8C320,350.004,316.408,353.596,312,353.596z"/>
	</g>
</g>
<g>
	<g>
		<path d="M168,321.596c-13.232,0-24,10.768-24,24s10.768,24,24,24s24-10.768,24-24S181.232,321.596,168,321.596z M168,353.596
			c-4.408,0-8-3.592-8-8c0-4.408,3.592-8,8-8s8,3.592,8,8C176,350.004,172.408,353.596,168,353.596z"/>
	</g>
</g>
<g>
	<g>
		<path d="M457.784,101.652l12.12-6.064c11.504-5.752,16.424-19.464,11.2-31.216l-18.992-42.728c-2.688-6.048-7.6-10.6-13.824-12.84
			c-6.232-2.24-12.92-1.832-18.84,1.12l-15.984,7.992l-6.392-12.064c-1-1.888-2.72-3.304-4.768-3.92
			c-2.056-0.616-4.264-0.392-6.136,0.64l-88,48c-3.712,2.024-5.208,6.6-3.408,10.432l14.528,30.88l-20.112-4.488
			c-0.624-8.168-5.304-15.8-13.096-19.696l-3.328-1.664c-5.888-2.936-12.816-3.336-18.992-1.064
			c-6.176,2.264-11.208,7.032-13.8,13.08l-11.376,26.536c-4.992,11.664-0.016,25.24,11.336,30.92l3.328,1.664
			c3.352,1.672,7.048,2.52,10.744,2.52c2.792,0,5.584-0.48,8.24-1.456c4.872-1.784,8.976-5.16,11.784-9.456l66.328,29.776
			c0.112,0.048,0.24,0.032,0.352,0.08l18.056,38.376c0.92,1.952,2.584,3.448,4.616,4.152c0.864,0.288,1.752,0.432,2.632,0.432
			c1.232,0,2.456-0.288,3.576-0.84l96-48c1.928-0.968,3.384-2.664,4.04-4.712c0.664-2.048,0.464-4.28-0.544-6.184L457.784,101.652z
			 M282.712,92.316l-11.376,26.528c-0.88,2.048-2.512,3.592-4.6,4.36c-2.096,0.768-4.336,0.64-6.336-0.352l-3.328-1.664
			c-3.784-1.888-5.44-6.416-3.776-10.304l11.376-26.536c0.88-2.048,2.512-3.592,4.6-4.36c0.904-0.336,1.832-0.496,2.76-0.496
			c1.224,0,2.44,0.288,3.576,0.848l3.328,1.664C282.72,83.892,284.376,88.42,282.712,92.316z M436.608,24.236
			c1.968-0.984,4.2-1.112,6.28-0.376c2.072,0.744,3.712,2.264,4.608,4.28l18.992,42.728c1.736,3.92,0.096,8.488-3.744,10.408
			L450.296,87.5l-29.344-55.44L436.608,24.236z M290.712,114.244l4.832-11.264l30.944,6.904l11.336,25.504L290.712,114.244z
			 M379.752,182.772l-57.304-121.76L396.72,20.5l64.376,121.608L379.752,182.772z"/>
	</g>
</g>
<g>
	<g>
		<path d="M178.728,145.188l-36.536-44.664c-1.88-2.304-4.872-3.36-7.808-2.768c-2.92,0.608-5.256,2.776-6.072,5.64l-8.048,28.168
			l-48.32-72.488c-7.304-10.944-19.52-17.48-32.68-17.48C17.616,41.596,0,59.212,0,80.86v1.544c0,12.128,5.472,23.376,15.008,30.872
			L83.2,166.852L53.192,178.1c-2.76,1.032-4.72,3.504-5.12,6.416c-0.4,2.92,0.84,5.816,3.216,7.544l46.744,34
			c30.8,22.4,56.576,31.536,88.984,31.536H200c4.416,0,8-3.584,8-8C208,215.652,204.52,176.708,178.728,145.188z M24.888,100.7
			C19.24,96.26,16,89.588,16,82.404V80.86c0-12.824,10.44-23.264,23.264-23.264c7.8,0,15.032,3.872,19.36,10.36l55.864,83.8
			l-1.08,3.768l-12.688,4.76L24.888,100.7z M187.016,241.596c-29.088,0-51.392-7.984-79.568-28.472l-34.72-25.256l29.408-11.024
			l20.672-7.752c2.376-0.888,4.184-2.856,4.88-5.296l11.808-41.296l26.856,32.824c20.688,25.28,25,57.192,25.576,86.272H187.016z"/>
	</g>
</g>
<g>
	<g>
		<rect x="256" y="185.596" width="16" height="16"/>
	</g>
</g>
<g>
	<g>
		<rect x="224" y="185.596" width="16" height="16"/>
	</g>
</g>
<g>
	<g>
		<rect x="256" y="217.596" width="16" height="16"/>
	</g>
</g>
<g>
	<g>
		<rect x="224" y="217.596" width="16" height="16"/>
	</g>
</g>
<g>
	<g>
		<rect x="224" y="249.596" width="16" height="16"/>
	</g>
</g>
<g>
	<g>
		<rect x="256" y="249.596" width="16" height="16"/>
	</g>
</g>
<g>
	<g>
		<rect x="224" y="153.596" width="16" height="16"/>
	</g>
</g>
<g>
	<g>
		<rect x="256" y="153.596" width="16" height="16"/>
	</g>
</g>
<g>
	<g>
		<path d="M472,425.596h-8c-9.8,0-17.784,1.864-24,5.512V408.46c13.76-3.576,24-16,24-30.864v-32c0-4.416-3.584-8-8-8h-48
			c-4.416,0-8,3.584-8,8v32c0,14.864,10.24,27.288,24,30.864v22.648c-6.216-3.648-14.2-5.512-24-5.512h-8c-4.416,0-8,3.584-8,8v8
			c0,26.544,13.464,40,40,40h8h8c26.536,0,40-13.456,40-40v-8C480,429.18,476.416,425.596,472,425.596z M424,465.596
			c-17.72,0-24-6.28-24-24c17.696,0,23.976,6.264,24,23.92V465.596z M432,393.596c-8.824,0-16-7.176-16-16v-24h32v24
			C448,386.42,440.824,393.596,432,393.596z M440,465.596c0-17.72,6.28-24,24-24C464,459.316,457.72,465.596,440,465.596z"/>
	</g>
</g>
<g>
	<g>
		<path d="M88,425.596h-8c-9.8,0-17.784,1.864-24,5.512V408.46c13.76-3.576,24-16,24-30.864v-32c0-4.416-3.584-8-8-8H24
			c-4.416,0-8,3.584-8,8v32c0,14.864,10.24,27.288,24,30.864v22.648c-6.216-3.648-14.2-5.512-24-5.512H8c-4.416,0-8,3.584-8,8v8
			c0,26.544,13.464,40,40,40h8h8c26.536,0,40-13.456,40-40v-8C96,429.18,92.416,425.596,88,425.596z M40,465.596
			c-17.72,0-24-6.28-24-24c17.696,0,23.976,6.264,24,23.92V465.596z M48,393.596c-8.824,0-16-7.176-16-16v-24h32v24
			C64,386.42,56.824,393.596,48,393.596z M56,465.596c0-17.72,6.288-24,24-24C80,459.316,73.72,465.596,56,465.596z"/>
	</g>
</g>
<g>
	<g>
		<rect x="135.997" y="182.281" transform="matrix(0.7071 -0.7071 0.7071 0.7071 -94.7149 158.523)" width="16" height="22.624"/>
	</g>
</g>
<g>
	<g>
		<path d="M384,65.596c-13.232,0-24,10.768-24,24s10.768,24,24,24s24-10.768,24-24S397.232,65.596,384,65.596z M384,97.596
			c-4.408,0-8-3.592-8-8s3.592-8,8-8c4.408,0,8,3.592,8,8S388.408,97.596,384,97.596z"/>
	</g>
</g>
<g>
	<g>
		<rect x="288" y="153.596" width="16" height="16"/>
	</g>
</g>
<g>
	<g>
		<rect x="288" y="185.596" width="16" height="16"/>
	</g>
</g>
<g>
	<g>
		<rect x="288" y="217.596" width="16" height="16"/>
	</g>
</g>
<g>
	<g>
		<rect x="288" y="249.596" width="16" height="16"/>
	</g>
</g>
<g>
</g>
<g>
</g>
<g>
</g>
<g>
</g>
<g>
</g>
<g>
</g>
<g>
</g>
<g>
</g>
<g>
</g>
<g>
</g>
<g>
</g>
<g>
</g>
<g>
</g>
<g>
</g>
<g>
</g>
</svg>
