<?xml version="1.0" encoding="iso-8859-1"?>
<!-- Generator: Adobe Illustrator 19.0.0, SVG Export Plug-In . SVG Version: 6.00 Build 0)  -->
<svg fill="#273582" width="128" height="128" xmlns="http://www.w3.org/2000/svg" xmlns:xlink="http://www.w3.org/1999/xlink" x="0px" y="0px"
	 viewBox="0 0 480 480" style="enable-background:new 0 0 480 480;" xml:space="preserve">
<g>
	<g>
		<path d="M208.693,232c0-22.32-18.576-40.696-40.8-39.992c-3.712-18.24-19.88-32.008-39.2-32.008s-35.488,13.768-39.2,32.008
			c-22.2-0.768-40.8,17.672-40.8,39.992c0,15.208,8.784,28.768,21.784,35.464c-3.752,6.144-5.784,13.224-5.784,20.536
			c0,22.056,17.944,40,40,40c8.688,0,17.104-2.904,24-8.152c6.896,5.248,15.312,8.152,24,8.152c22.056,0,40-17.944,40-40
			c0-7.312-2.032-14.392-5.784-20.536C199.909,260.768,208.693,247.208,208.693,232z M172.013,255.632
			c-3.136,0.44-5.712,2.68-6.584,5.72c-0.872,3.048,0.136,6.312,2.56,8.344c5.528,4.624,8.704,11.296,8.704,18.304
			c0,13.232-10.768,24-24,24c-6.912,0-13.296-2.952-17.976-8.304c-1.52-1.736-3.712-2.736-6.024-2.736c-2.312,0-4.504,1-6.024,2.736
			c-4.68,5.352-11.064,8.304-17.976,8.304c-13.232,0-24-10.768-24-24c0-7.008,3.176-13.68,8.704-18.304
			c2.432-2.032,3.432-5.296,2.56-8.344c-0.872-3.04-3.456-5.28-6.584-5.72c-11.792-1.648-20.68-11.8-20.68-23.632
			c0-13.232,10.768-24,24-24c1.8,0,3.728,0.288,6.072,0.904c2.456,0.648,5.072,0.096,7.048-1.496
			c1.984-1.584,3.088-4.024,2.992-6.552c-0.024-0.48-0.088-0.856-0.112-0.856c0-13.232,10.768-24,24-24s24,10.768,24.016,23.504
			c-0.04,0.264-0.12,1.08-0.128,1.352c-0.104,2.528,1.008,4.968,2.992,6.552c1.976,1.584,4.592,2.136,7.048,1.496
			c2.344-0.616,4.272-0.904,6.072-0.904c13.232,0,24,10.768,24,24C192.693,243.832,183.805,253.984,172.013,255.632z"/>
	</g>
</g>
<g>
	<g>
		<path d="M128.693,224c-13.232,0-24,10.768-24,24s10.768,24,24,24s24-10.768,24-24S141.925,224,128.693,224z M128.693,256
			c-4.408,0-8-3.584-8-8c0-4.416,3.592-8,8-8c4.408,0,8,3.584,8,8C136.693,252.416,133.101,256,128.693,256z"/>
	</g>
</g>
<g>
	<g>
		<rect x="248.693" y="280" width="16" height="16"/>
	</g>
</g>
<g>
	<g>
		<rect x="248.693" y="312" width="16" height="16"/>
	</g>
</g>
<g>
	<g>
		<rect x="248.693" y="344" width="16" height="16"/>
	</g>
</g>
<g>
	<g>
		<rect x="248.693" y="376" width="16" height="16"/>
	</g>
</g>
<g>
	<g>
		<rect x="216.693" y="376" width="16" height="16"/>
	</g>
</g>
<g>
	<g>
		<rect x="184.693" y="376" width="16" height="16"/>
	</g>
</g>
<g>
	<g>
		<rect x="152.693" y="376" width="16" height="16"/>
	</g>
</g>
<g>
	<g>
		<rect x="120.693" y="376" width="16" height="16"/>
	</g>
</g>
<g>
	<g>
		<rect x="120.693" y="344" width="16" height="16"/>
	</g>
</g>
<g>
	<g>
		<path d="M470.349,85.656c11.944-11.936,11.944-31.376,0-43.312c-11.936-11.936-31.376-11.936-43.312,0l-16.248,16.248
			C391.461,46.872,368.893,40,344.693,40v16c19.768,0,38.328,5.192,54.464,14.224l-4.12,4.12
			c-9.976,9.968-11.496,25.12-4.816,36.816l-24.584,24.584c-22.744-26.16-51.856-46.624-84.952-58.872V48h8
			c10.416,0,19.216-6.712,22.528-16h33.48V16h-33.472c-3.312-9.288-12.112-16-22.528-16h-32c-10.416,0-19.216,6.712-22.528,16
			h-41.472V8c0-4.424-3.584-8-8-8h-80c-4.416,0-8,3.576-8,8v32c0,4.424,3.584,8,8,8h32v28.864
			c-79.312,29.352-136,105.744-136,195.136c0,114.696,93.312,208,208,208s208-93.304,208-208c0-46.32-15.232-89.144-40.936-123.752
			l25.784-25.784c4.688,2.68,9.896,4.144,15.152,4.144c7.84,0,15.688-2.984,21.656-8.952l4.12-4.12
			c9.032,16.136,14.224,34.696,14.224,54.464v216h16V168c0-24.2-6.872-46.768-18.592-66.096L470.349,85.656z M256.693,16h32
			c4.408,0,8,3.584,8,8s-3.592,8-8,8h-16h-16c-4.408,0-8-3.584-8-8S252.285,16,256.693,16z M192.693,40v-8h41.368
			c0.096,0.272,0.24,0.512,0.344,0.776c0.176,0.44,0.376,0.864,0.576,1.296c0.416,0.896,0.88,1.752,1.4,2.584
			c0.248,0.392,0.48,0.784,0.744,1.16c0.672,0.952,1.416,1.84,2.216,2.68c0.168,0.176,0.304,0.376,0.48,0.544
			c0.992,0.984,2.072,1.864,3.224,2.664c0.32,0.224,0.664,0.4,1,0.608c0.872,0.544,1.768,1.04,2.712,1.472
			c0.44,0.2,0.88,0.376,1.328,0.552c0.936,0.36,1.904,0.656,2.888,0.896c0.44,0.104,0.864,0.232,1.312,0.32
			c1.432,0.272,2.896,0.448,4.408,0.448h8v23.688c-0.264-0.072-0.536-0.12-0.808-0.2c-8.432-2.328-17.08-4.136-25.904-5.392
			c-0.944-0.136-1.896-0.24-2.848-0.36c-3.352-0.432-6.736-0.776-10.136-1.04c-1.152-0.088-2.296-0.192-3.44-0.264
			C217.301,64.176,213.021,64,208.693,64s-8.608,0.176-12.872,0.44c-1.152,0.072-2.296,0.176-3.44,0.264
			c-3.4,0.264-6.776,0.608-10.136,1.04c-0.952,0.12-1.896,0.224-2.848,0.36c-8.824,1.248-17.464,3.064-25.904,5.392
			c-0.264,0.072-0.536,0.12-0.8,0.192V48h32C189.109,48,192.693,44.424,192.693,40z M112.693,32V16h64v8v8h-32H112.693z
			 M400.693,272c0,105.864-86.136,192-192,192s-192-86.136-192-192c0-84.704,55.16-156.72,131.424-182.152
			c14.544-4.832,29.584-7.896,44.752-9.144c0.184-0.016,0.368-0.024,0.56-0.04c10.16-0.808,20.376-0.808,30.544,0
			c0.184,0.016,0.368,0.024,0.56,0.04c15.168,1.248,30.208,4.312,44.752,9.144c33.336,11.12,62.616,31.128,85.04,57.224
			L251.037,250.344l11.312,11.312l101.944-101.944C387.157,191.32,400.693,230.096,400.693,272z M427.037,106.344
			c-5.704,5.704-14.984,5.704-20.688,0s-5.704-14.984,0-20.688l6.4-6.4c7.768,5.976,14.712,12.92,20.688,20.688L427.037,106.344z
			 M424.165,67.84l14.184-14.184c2.848-2.848,6.6-4.272,10.344-4.272c3.744,0,7.496,1.424,10.344,4.272
			c5.704,5.704,5.704,14.984,0,20.688l-14.184,14.184C438.765,80.864,431.829,73.936,424.165,67.84z"/>
	</g>
</g>
<g>
	<g>
		<rect x="456.693" y="432" width="16" height="16"/>
	</g>
</g>
<g>
	<g>
		<rect x="456.693" y="464" width="16" height="16"/>
	</g>
</g>
<g>
	<g>
		<rect x="456.693" y="400" width="16" height="16"/>
	</g>
</g>
<g>
</g>
<g>
</g>
<g>
</g>
<g>
</g>
<g>
</g>
<g>
</g>
<g>
</g>
<g>
</g>
<g>
</g>
<g>
</g>
<g>
</g>
<g>
</g>
<g>
</g>
<g>
</g>
<g>
</g>
</svg>
