<?xml version="1.0" encoding="iso-8859-1"?>
<!-- Generator: Adobe Illustrator 19.0.0, SVG Export Plug-In . SVG Version: 6.00 Build 0)  -->
<svg fill="#273582" width="128" height="128" xmlns="http://www.w3.org/2000/svg" xmlns:xlink="http://www.w3.org/1999/xlink" x="0px" y="0px"
	 viewBox="0 0 484.8 484.8" style="enable-background:new 0 0 484.8 484.8;" xml:space="preserve">
<g>
	<g>
		<path d="M480,250.4c0-3.7-1.1-8.5-5.2-13.3c3.4-3.1,5.2-6.7,5.2-10.7c0-19.1-38.4-23-56-23.8v-24.2h-16v24.2
			c-12.6,0.5-24.3,2.2-33.6,4.8c-4-3.1-9-4.9-14.4-4.9h-56v-16h24c22.1,0,40-17.9,40-40v-40c0-4.4-3.6-8-8-8h-8V48.9
			c9.3-3.3,16-12.1,16-22.5c0-13.2-10.8-24-24-24s-24,10.8-24,24c0,10.4,6.7,19.2,16,22.5v49.5h-8c-4.4,0-8,3.6-8,8v24
			c0,4.4-3.6,8-8,8h-32.9c10.4-10.2,16.9-24.3,16.9-40c0-30.9-25.1-56-56-56c-30.9,0-56,25.1-56,56c0,15.7,6.5,29.8,16.9,40H168
			c-4.4,0-8-3.6-8-8v-24c0-4.4-3.6-8-8-8h-8V48.9c9.3-3.3,16-12.1,16-22.5c0-13.2-10.8-24-24-24s-24,10.8-24,24
			c0,10.4,6.7,19.2,16,22.5v49.5h-8c-4.4,0-8,3.6-8,8v40c0,22.1,17.9,40,40,40h24v16h-56c-5.4,0-10.4,1.9-14.4,4.9
			c-9.2-2.6-21-4.3-33.6-4.8v-24.1H56v24.2c-17.6,0.8-56,4.7-56,23.8c0,4,1.8,7.6,5.2,10.7c-4.1,4.8-5.2,9.6-5.2,13.3
			c0,19.2,27,30.1,56,31.7v32.3H24c-13.2,0-24,10.8-24,24v48c0,13.2,10.8,24,24,24h32v56H32v16h64v-16H72v-56h32
			c13.2,0,24-10.8,24-24v-48c0-13.2-10.8-24-24-24H72V282c11.7-0.7,22.5-2.8,31.6-6.2c4.3,4.1,10.1,6.6,16.4,6.6h67
			c-25.9,17.2-43,46.6-43,80c0,26.5,10.8,50.6,28.3,68l-12,41.8c-0.7,2.4-0.2,5,1.3,7s3.9,3.2,6.4,3.2h32c3.6,0,6.7-2.4,7.7-5.8
			l6.2-21.9c8.3,2.4,17,3.7,26.1,3.7c9,0,17.8-1.3,26.1-3.7l6.2,21.9c1,3.4,4.1,5.8,7.7,5.8h32c2.5,0,4.9-1.2,6.4-3.2s2-4.6,1.3-7
			l-12-41.8c17.5-17.4,28.3-41.4,28.3-68c0-33.4-17.1-62.8-43-80h67c6.4,0,12.1-2.5,16.4-6.6c9.1,3.4,19.8,5.6,31.6,6.2v32.4h-32
			c-13.2,0-24,10.8-24,24v48c0,13.2,10.8,24,24,24h32v56h-24v16h64v-16h-24v-56h32c13.2,0,24-10.8,24-24v-48c0-13.2-10.8-24-24-24
			h-32v-32.3C453,280.4,480,269.6,480,250.4z M112,386.4c0,4.4-3.6,8-8,8H24c-4.4,0-8-3.6-8-8v-11.7l16.6-11l27.8,13.9
			c1.1,0.6,2.4,0.8,3.6,0.8s2.5-0.3,3.6-0.8l27.8-13.9l16.6,11V386.4z M104,330.4c4.4,0,8,3.6,8,8v17.1l-11.6-7.7
			c-2.4-1.6-5.5-1.8-8-0.5L64,361.5l-28.4-14.2c-2.6-1.3-5.6-1.1-8,0.5L16,355.5v-17.1c0-4.4,3.6-8,8-8H104z M64,266.4
			c-29.8,0-48-10.4-48-16c0-1.2,1.2-3.3,4.3-5.6c0.1,0,0.2,0,0.3,0.1c2.1,0.6,4.4,1.2,6.8,1.8c0.6,0.2,1.3,0.3,2,0.4
			c2.5,0.5,5.1,1,7.8,1.4c0,0,0.8,0.1,0.9,0.1c1.6,0.2,3.2,0.4,4.9,0.6l1.6,0.2c1.4,0.2,2.9,0.3,5,0.4l1.4,0.1
			c1.5,0.1,3,0.2,5.2,0.3h1.2c2.2,0.1,4.4,0.1,6.6,0.1s4.4,0,6.5-0.1l2-0.1c1.5-0.1,3-0.1,4.5-0.2l2-0.2c1.5-0.1,3-0.2,4.4-0.4
			l1.7-0.2c1.7-0.2,3.3-0.4,4.8-0.6c0,0,0.8-0.1,0.9-0.1h0.1c1.8-0.3,3.4-0.5,5.1-0.8v10.8c0,1.1,0.1,2.2,0.2,3.2
			C87.2,264.7,75.9,266.4,64,266.4z M96,226.4v4.9c-2.4,0.5-4.9,1-7.5,1.4l-0.8,0.1c-1.4,0.2-2.9,0.4-4.3,0.5l-1.6,0.2
			c-1.3,0.1-2.6,0.2-4.6,0.4L76,234c-1.4,0.1-2.7,0.2-4.1,0.2h-0.8h-1c-4,0.1-8,0.1-12.2,0l-1.7-0.1c-1.4-0.1-2.8-0.1-4.2-0.2
			l-1.8-0.1c-1.4-0.1-2.7-0.2-4-0.4l-1.5-0.1c-1.4-0.2-2.8-0.3-4.2-0.5c-0.3,0-0.5-0.1-0.7-0.1l-0.3,0.1v-0.1
			c-6.9-1-12.9-2.5-17.4-4.2c-2.2-0.8-3.7-1.6-4.7-2.2c5.5-3.3,21.6-7.9,46.6-7.9c11.8,0,23.4,1.2,32.5,3.2
			C96.2,223.2,96,224.8,96,226.4z M344,18.4c4.4,0,8,3.6,8,8s-3.6,8-8,8c-4.4,0-8-3.6-8-8S339.6,18.4,344,18.4z M200,98.4
			c0-22.1,17.9-40,40-40c22.1,0,40,17.9,40,40s-17.9,40-40,40C217.9,138.4,200,120.5,200,98.4z M136,18.4c4.4,0,8,3.6,8,8
			s-3.6,8-8,8c-4.4,0-8-3.6-8-8S131.6,18.4,136,18.4z M152,170.4c-13.2,0-24-10.8-24-24v-32h16v16c0,13.2,10.8,24,24,24h144
			c13.2,0,24-10.8,24-24v-16h16v32c0,13.2-10.8,24-24,24h-32c-4.4,0-8,3.6-8,8v24h-48h-48v-24c0-4.4-3.6-8-8-8H152z M120,266.4
			c-3.1,0-5.7-1.8-7-4.4c-0.2-0.4-0.3-0.7-0.5-1.1c-0.3-0.8-0.5-1.6-0.5-2.5v-20.8v-11.2c0-1.8,0.6-3.1,1.3-4.2
			c1.4-2.3,3.8-3.8,6.7-3.8h64h48v48H120z M194,466.4h-15.4l7.1-24.9c1.6,1.1,3.3,2.1,4.9,3.1c0.6,0.4,1.3,0.8,1.9,1.2
			c1.7,1,3.4,1.9,5.2,2.7c0.5,0.2,0.8,0.4,1.2,0.6L194,466.4z M286,466.4l-5-17.3c0.4-0.2,0.7-0.4,1.1-0.6c1.8-0.9,3.5-1.8,5.2-2.7
			c0.7-0.4,1.3-0.8,1.9-1.2c1.7-1,3.3-2,4.9-3.1l7.3,24.9H286z M320,362.4c0,23.8-10.5,45.2-27.1,59.9c-1.5,1.3-3,2.6-4.6,3.8
			c-0.4,0.3-0.8,0.6-1.2,0.9c-1.6,1.2-3.2,2.3-4.9,3.3c-0.4,0.3-0.8,0.5-1.2,0.8c-1.7,1-3.5,2-5.3,2.9c-0.3,0.2-0.7,0.3-1,0.5
			c-1.9,0.9-3.9,1.8-5.9,2.6c-9,3.5-18.6,5.4-28.8,5.4s-19.9-2-28.8-5.5c-2-0.8-3.9-1.6-5.9-2.6c-0.3-0.2-0.7-0.3-1-0.5
			c-1.8-0.9-3.6-1.9-5.3-2.9c-0.4-0.2-0.8-0.5-1.2-0.8c-1.7-1-3.3-2.1-4.9-3.3c-0.4-0.3-0.8-0.6-1.2-0.9c-1.6-1.2-3.1-2.4-4.6-3.8
			c-16.6-14.7-27.1-36-27.1-59.9c0-44.1,35.9-80,80-80S320,318.3,320,362.4z M368,237.6v20.8c0,0.9-0.2,1.7-0.5,2.5
			c-0.1,0.4-0.3,0.8-0.5,1.1c-1.3,2.6-3.9,4.4-7,4.4H248v-48h48h64c2.9,0,5.2,1.6,6.7,3.8c0.7,1,1.3,2.4,1.3,4.2V237.6z
			 M416.1,218.4c25,0,41.1,4.6,46.5,7.9c-1.1,0.6-2.5,1.4-4.7,2.2c-4.5,1.7-10.6,3.2-17.4,4.2l-0.8,0.1c-1.4,0.2-2.9,0.4-4.3,0.5
			l-1.6,0.2c-1.3,0.1-2.6,0.2-4.6,0.4L428,234c-1.4,0.1-2.7,0.2-4.1,0.2h-0.8h-1c-4,0.1-8,0.1-12.2,0l-1.7-0.1
			c-1.4-0.1-2.8-0.1-4.2-0.2l-1.8-0.1c-1.4-0.1-2.7-0.2-4-0.4l-1.5-0.2c-1.5-0.2-2.9-0.3-4.3-0.5l-0.8-0.1c-2.6-0.4-5.2-0.8-7.5-1.4
			v-4.8c0-1.7-0.2-3.3-0.5-4.8C392.8,219.6,404.3,218.4,416.1,218.4z M464,386.4c0,4.4-3.6,8-8,8h-80c-4.4,0-8-3.6-8-8v-11.7
			l16.6-11l27.8,13.9c1.1,0.6,2.4,0.8,3.6,0.8s2.5-0.3,3.6-0.8l27.8-13.9l16.6,11V386.4z M456,330.4c4.4,0,8,3.6,8,8v17.1l-11.6-7.7
			c-2.4-1.6-5.5-1.8-8-0.5L416,361.5l-28.4-14.2c-2.6-1.3-5.6-1.1-8,0.5l-11.6,7.7v-17.1c0-4.4,3.6-8,8-8H456z M416,266.4
			c-11.9,0-23.2-1.7-32.2-4.8c0.2-1.1,0.2-2.1,0.2-3.2v-10.7c1.6,0.3,3.4,0.6,5.1,0.8h0.1c0,0,0.8,0.1,0.9,0.1
			c1.6,0.2,3.2,0.4,4.8,0.6c0,0,0,0,0.1,0l1.6,0.2c1.4,0.2,2.9,0.3,5,0.4l1.4,0.1c1.5,0.1,3,0.2,5.2,0.3h1.2
			c2.2,0.1,4.4,0.1,6.6,0.1s4.4,0,6.5-0.1l2-0.1c1.5-0.1,3-0.1,4.5-0.2l2-0.2c1.5-0.1,3-0.2,4.4-0.4l1.7-0.2
			c1.7-0.2,3.3-0.4,4.8-0.6c0,0,0.8-0.1,0.9-0.1c2.8-0.4,5.3-0.9,7.8-1.4c0.7-0.1,1.3-0.3,2-0.4c2.4-0.5,4.6-1.1,6.7-1.8
			c0.1,0,0.2-0.1,0.3-0.1c3.2,2.3,4.3,4.4,4.3,5.6C464,256,445.8,266.4,416,266.4z"/>
	</g>
</g>
<g>
	<g>
		<path d="M240,330.4c-17.6,0-32,14.4-32,32c0,17.6,14.4,32,32,32c17.6,0,32-14.4,32-32C272,344.8,257.6,330.4,240,330.4z
			 M240,378.4c-8.8,0-16-7.2-16-16s7.2-16,16-16s16,7.2,16,16S248.8,378.4,240,378.4z"/>
	</g>
</g>
<g>
	<g>
		<path d="M452.8,4c-2.4-1.8-5.7-2.1-8.4-0.8c-2.7,1.4-4.4,4.1-4.4,7.2v41.5c-2.5-0.9-5.2-1.5-8-1.5c-13.2,0-24,10.8-24,24
			s10.8,24,24,24s24-10.8,24-24v-48l19.2,14.4l9.6-12.8L452.8,4z M432,82.4c-4.4,0-8-3.6-8-8s3.6-8,8-8c4.4,0,8,3.6,8,8
			S436.4,82.4,432,82.4z"/>
	</g>
</g>
<g>
	<g>
		<path d="M44.8,60c-2.4-1.8-5.7-2.1-8.4-0.8c-2.7,1.4-4.4,4.2-4.4,7.2v41.5c-2.5-0.9-5.2-1.5-8-1.5c-13.2,0-24,10.8-24,24
			s10.8,24,24,24s24-10.8,24-24v-48l19.2,14.4L76.8,84L44.8,60z M24,138.4c-4.4,0-8-3.6-8-8c0-4.4,3.6-8,8-8s8,3.6,8,8
			C32,134.8,28.4,138.4,24,138.4z"/>
	</g>
</g>
<g>
	<g>
		<rect x="136" y="234.4" width="16" height="16"/>
	</g>
</g>
<g>
	<g>
		<rect x="168" y="234.4" width="16" height="16"/>
	</g>
</g>
<g>
	<g>
		<rect x="200" y="234.4" width="16" height="16"/>
	</g>
</g>
<g>
	<g>
		<rect x="264" y="234.4" width="16" height="16"/>
	</g>
</g>
<g>
	<g>
		<rect x="296" y="234.4" width="16" height="16"/>
	</g>
</g>
<g>
	<g>
		<rect x="328" y="234.4" width="16" height="16"/>
	</g>
</g>
<g>
</g>
<g>
</g>
<g>
</g>
<g>
</g>
<g>
</g>
<g>
</g>
<g>
</g>
<g>
</g>
<g>
</g>
<g>
</g>
<g>
</g>
<g>
</g>
<g>
</g>
<g>
</g>
<g>
</g>
</svg>
