<?xml version="1.0" encoding="iso-8859-1"?>
<!-- Generator: Adobe Illustrator 19.0.0, SVG Export Plug-In . SVG Version: 6.00 Build 0)  -->
<svg fill="#273582" width="128" height="128" xmlns="http://www.w3.org/2000/svg" xmlns:xlink="http://www.w3.org/1999/xlink" x="0px" y="0px"
	 viewBox="0 0 480 480" style="enable-background:new 0 0 480 480;" xml:space="preserve">
<g>
	<g>
		<path d="M472.416,231.336c-4.76-2.936-10.568-3.2-15.568-0.696l-0.936,0.464C455.424,218.288,444.928,208,432,208h-16
			c0-0.072-0.04-0.136-0.04-0.216c-0.024-0.776-0.12-1.56-0.368-2.312l-8.696-26.12c-0.008,0-0.008,0-0.008,0
			c-2.768-8.312-8.08-15.208-14.88-20.008V96c0-52.936-43.064-96-96-96C243.072,0,200,43.064,200,96v63.336
			c-6.8,4.8-12.12,11.704-14.888,20.016l-8.696,26.12c-0.256,0.76-0.352,1.536-0.368,2.312C176.04,207.864,176,207.928,176,208
			v7.192l-22.248,27.816c-0.64,0.8-1.12,1.712-1.416,2.696l-23.8,79.344c-0.464,0.48-0.968,0.912-1.368,1.456l-10.024,13.592
			c-0.272,0.368-0.512,0.76-0.72,1.168c-3.752,7.496-3.352,16.224,1.048,23.352c2.016,3.264,4.768,5.832,7.896,7.76l-4.56,22.8
			l-45.24,30.168c-2.472,1.648-3.832,4.528-3.512,7.488c0.304,2.96,2.224,5.496,4.984,6.6l40,16c0.936,0.376,1.944,0.568,2.96,0.568
			h11.72l13.624,20.44c1.488,2.224,3.984,3.56,6.656,3.56h32c2.432,0,4.728-1.104,6.248-3l32-40c1.136-1.424,1.752-3.184,1.752-5
			h224c4.424,0,8-3.584,8-8v-48c0-4.416-3.576-8-8-8h-8v-24c0-4.416-3.576-8-8-8h-16v-48h18.296
			c1.928,4.248,4.952,7.968,9.088,10.528c3.872,2.4,8.232,3.608,12.6,3.608c3.664,0,7.336-0.848,10.752-2.552l8.84-4.424
			c2.712-1.36,4.424-4.128,4.424-7.16v-43.056C480,239.36,477.168,234.272,472.416,231.336z M216,96c0-44.112,35.888-80,80-80
			s80,35.888,80,80v56.648c-0.064-0.008-0.136-0.008-0.2-0.016c-2.24-0.392-4.528-0.632-6.864-0.632h-37.864l-2.808-15.28
			l-0.248-1.36c0.568-0.328,1.064-0.744,1.616-1.088c1.152-0.712,2.264-1.48,3.376-2.272c1.184-0.848,2.344-1.712,3.464-2.64
			c0.536-0.44,1.128-0.8,1.648-1.256c0.016-0.008,0.312-0.288,0.328-0.296c2.096-1.856,4.072-3.848,6.104-6.176
			c0.496-0.576,0.912-1.256,1.4-1.864c0.592-0.736,1.144-1.496,1.696-2.264c0.656-0.904,1.384-1.728,2-2.664
			c0.016-0.032,0.44-0.728,0.456-0.76c0.432-0.68,0.832-1.392,1.24-2.104c0.008-0.008,0.008-0.016,0.016-0.024
			c0.832-1.44,1.64-2.936,2.456-4.624l0.528-1.112c0.168-0.376,0.272-0.776,0.44-1.16c0.336-0.784,0.6-1.592,0.904-2.392
			c0.52-1.36,1.12-2.696,1.544-4.072l0.264-1c0.04-0.152,0.064-0.32,0.104-0.472c0.312-1.112,0.504-2.256,0.752-3.384
			c0.24-1.096,0.544-2.152,0.736-3.296c0.064-0.392,0.112-0.76,0.168-1.136c0.104-0.688,0.176-1.376,0.256-2.064
			C359.824,84.632,360,82.272,360,80c0-2.088-0.12-4.152-0.32-6.272c-0.016-0.112-0.04-0.208-0.056-0.328
			c-0.048-0.44-0.144-0.824-0.208-1.248c-0.216-1.504-0.464-2.976-0.808-4.344c-0.176-0.704-0.4-1.352-0.608-2.024
			c-0.296-0.952-0.584-1.904-0.936-2.8c-0.32-0.824-0.688-1.616-1.056-2.392c-0.304-0.64-0.608-1.272-0.936-1.88
			c-0.456-0.848-0.944-1.672-1.448-2.464c-0.312-0.488-0.632-0.968-0.96-1.44c-0.56-0.808-1.128-1.6-1.728-2.368
			c-0.352-0.448-0.72-0.888-1.08-1.328c-0.608-0.744-1.216-1.48-1.856-2.192c-0.448-0.496-0.904-0.976-1.36-1.464
			c-0.608-0.64-1.2-1.288-1.824-1.928c-0.304-0.304-0.608-0.616-0.912-0.92c-0.744-0.752-1.48-1.504-2.248-2.264
			c-2.592-2.6-6.616-3.08-9.768-1.192L293.784,64h-53.152c-3.984,0-7.36,2.928-7.92,6.864C232.224,74.272,232,77.168,232,80
			c0,2.288,0.176,4.664,0.488,7.264c0.08,0.712,0.16,1.424,0.272,2.128c0.056,0.376,0.104,0.736,0.168,1.136
			c0.184,1.096,0.488,2.16,0.72,3.248c0.248,1.12,0.44,2.256,0.744,3.352c0.048,0.168,0.064,0.352,0.112,0.52
			c0.032,0.144,0.192,0.76,0.24,0.904c0.408,1.344,0.984,2.616,1.488,3.92c0.336,0.888,0.632,1.792,1.008,2.664
			c0.16,0.368,0.264,0.76,0.432,1.128l0.656,1.36c0.48,0.992,1.064,1.912,1.584,2.872c0.392,0.712,0.76,1.432,1.176,2.128
			c0.28,0.48,0.512,0.992,0.808,1.464c0.072,0.12,0.376,0.616,0.456,0.736c1.568,2.408,3.288,4.696,5.328,7.056
			c1.784,2.056,3.76,4.048,6.192,6.216c0.52,0.456,1.112,0.816,1.648,1.256c1.12,0.92,2.28,1.792,3.472,2.64
			c1.104,0.784,2.208,1.544,3.36,2.256c0.56,0.344,1.056,0.768,1.632,1.096l-0.024,0.128L260.928,152h-37.864
			c-2.336,0-4.624,0.24-6.864,0.624c-0.064,0.016-0.136,0.008-0.2,0.024V96z M316.64,123.272c-1.232,0.592-2.504,1.072-3.768,1.552
			c-0.416,0.16-0.816,0.36-1.24,0.504c-1.368,0.472-2.76,0.84-4.152,1.192c-0.328,0.08-0.648,0.2-0.976,0.28
			c-5.192,1.176-10.512,1.472-15.776,0.88c-0.008,0-0.024,0-0.032-0.008c-1.744-0.2-3.472-0.488-5.192-0.872
			c-0.192-0.04-0.368-0.112-0.56-0.16c-1.536-0.368-3.072-0.784-4.576-1.312c-0.168-0.056-0.32-0.144-0.488-0.2
			c-1.528-0.552-3.04-1.152-4.52-1.864c-1.696-0.808-3.32-1.776-4.936-2.792c-0.264-0.168-0.56-0.288-0.816-0.464
			c-1.32-0.872-2.592-1.928-3.872-2.968c-0.528-0.432-1.112-0.8-1.616-1.248c0,0,0,0-0.008-0.008
			c-8.176-7.296-13.656-17.272-15.44-28.152l-0.208-1.344C248.192,84.224,248,82.136,248,80h48c1.456,0,2.872-0.392,4.12-1.144
			l34.592-20.752c1.216,1.288,2.256,2.488,3.224,3.672c0.184,0.232,0.376,0.456,0.552,0.688c0.888,1.152,1.656,2.288,2.32,3.448
			c0.136,0.232,0.248,0.472,0.376,0.704c0.64,1.216,1.2,2.456,1.608,3.808c0.008,0.016,0.008,0.04,0.016,0.056
			c0.408,1.352,0.68,2.832,0.872,4.424c0.032,0.28,0.08,0.552,0.104,0.848C343.912,77.152,344,78.56,344,80
			c0,2.136-0.192,4.224-0.48,6.36l-0.184,1.232c-1.368,8.416-4.976,16.264-10.312,22.776c-0.184,0.224-0.312,0.448-0.512,0.672
			c-1.416,1.672-2.952,3.248-4.592,4.712c-0.016,0.016-0.032,0.032-0.056,0.048c-1.144,1.024-2.408,1.92-3.656,2.832
			c-0.608,0.44-1.16,0.944-1.784,1.36C320.592,121.208,318.656,122.304,316.64,123.272z M317.752,168l-43.4-0.496l4.736-25.8
			c0.392,0.112,0.8,0.144,1.192,0.248c1.816,0.464,3.648,0.824,5.496,1.128c0.76,0.12,1.504,0.288,2.264,0.384
			c2.632,0.328,5.28,0.536,7.96,0.536s5.328-0.208,7.96-0.544c0.76-0.096,1.504-0.264,2.256-0.384
			c1.856-0.304,3.696-0.664,5.52-1.128c0.392-0.104,0.792-0.136,1.184-0.24l0.28,1.504l3.352,18.24L317.752,168z M200.288,184.408
			c1.984-5.944,6.144-10.672,11.392-13.504c0.032-0.016,0.064-0.016,0.096-0.032c1.648-0.888,3.4-1.536,5.184-2.016
			c0.24-0.064,0.488-0.12,0.728-0.176c1.776-0.416,3.576-0.68,5.376-0.68h35.168c0,0.144,0.064,0.288,0.072,0.432
			c0.032,1.4,0.28,2.76,0.68,4.096c0.12,0.392,0.24,0.776,0.392,1.16c0.56,1.464,1.264,2.88,2.256,4.152
			c3.048,3.912,7.648,6.16,12.616,6.16h43.504c4.968,0,9.568-2.248,12.616-6.16c1.016-1.304,1.728-2.744,2.296-4.216
			c0.144-0.376,0.272-0.736,0.384-1.12c0.448-1.464,0.744-2.952,0.744-4.432c0-0.024,0.008-0.048,0.008-0.072h35.136
			c1.8,0,3.6,0.264,5.376,0.68c0.248,0.056,0.488,0.112,0.728,0.176c1.784,0.48,3.536,1.128,5.184,2.016
			c0.032,0.016,0.064,0.024,0.096,0.04c5.248,2.832,9.4,7.56,11.392,13.504L396.896,200H195.104L200.288,184.408z M192,218v-2h208
			v64v56h-78.024l13.832-62.264c0.592-2.664-0.216-5.456-2.16-7.392l-16-16C316.16,248.84,314.128,248,312,248h-64
			c-2.128,0-4.16,0.84-5.656,2.344L228.688,264H192V218z M196.944,280h22.104l-7.992,16h-6.112l-7.432-14.872v-0.008L196.944,280z
			 M216,312c3.032,0,5.8-1.712,7.16-4.424l15.424-30.84L251.312,264h57.376l10.544,10.552L305.576,336H248h-32V312z
			 M190.496,302.864l2.352,4.704c1.352,2.72,4.12,4.432,7.152,4.432v24h-14.528c0-2.656-0.608-5.328-1.936-7.736
			c-0.864-1.568-2.032-2.872-3.312-4.04L190.496,302.864z M167.216,251.784L176,240.808V272c0,0.104,0.056,0.192,0.056,0.296
			c0.032,0.84,0.2,1.656,0.496,2.464c0.064,0.176,0.104,0.352,0.184,0.528c0.04,0.096,0.056,0.2,0.104,0.304l4.592,9.192
			L164.496,320h-17.744L167.216,251.784z M130.496,348.952L140.04,336h29.488l-2.312,3.696c-0.016,0.016-0.032,0.032-0.048,0.048
			l-9.904,15.832c-1.368,2.728-4.104,4.424-7.152,4.424h-12.216c-4.032,0-6.104-2.656-6.808-3.792
			C130.416,355.12,129.072,352.32,130.496,348.952z M210.352,370.336c-0.016,0.016-0.016,0.024-0.032,0.04
			c-0.656,0.664-1.144,1.44-1.528,2.264c-0.048,0.104-0.128,0.176-0.168,0.28c-0.064,0.16-0.056,0.344-0.112,0.512
			c-0.232,0.672-0.368,1.36-0.416,2.072C208.088,375.68,208,375.832,208,376v48v5.192L180.16,464h-23.872l-13.624-20.44
			c-1.496-2.224-3.992-3.56-6.664-3.56h-14.464l-24.448-9.784l35.344-23.56c1.768-1.176,2.992-3.008,3.408-5.088L140.96,376h9.152
			c9.152,0,17.376-5.08,21.088-12.584L178.368,352h50.32L210.352,370.336z M440,384v32H224v-32h208H440z M424,352v16H235.312l16-16
			H312h96H424z M440,240.008c-3.728,3.32-6.272,7.712-7.368,12.6c-0.048,0.2-0.088,0.4-0.128,0.6
			c-0.296,1.528-0.504,3.08-0.504,4.68V272h-16v-48h16c4.416,0,8,3.592,8,8V240.008z M464,283.056l-4.424,2.208
			c-3.584,1.8-6.64,0.352-7.784-0.344c-1.024-0.64-3.184-2.464-3.624-5.736c-0.008-0.056,0.024-0.104,0.016-0.16
			c0-0.048-0.136-0.832-0.184-1.184v-19.952c0-0.712,0.112-1.4,0.288-2.064c0.544-1.952,1.864-3.656,3.744-4.752
			c0.192-0.112,0.336-0.272,0.512-0.392L464,244.944V283.056z"/>
	</g>
</g>
<g>
	<g>
		<rect x="352" y="232" width="32" height="16"/>
	</g>
</g>
<g>
	<g>
		<rect x="344" y="304" width="40" height="16"/>
	</g>
</g>
<g>
	<g>
		<path d="M143.352,59.152c0.952-2.216,0.848-4.744-0.272-6.872c-1.12-2.136-3.152-3.648-5.504-4.12L102.8,41.2L95.84,6.432
			C95.096,2.688,91.816,0,88,0H72H56c-3.816,0-7.096,2.688-7.84,6.432L41.2,41.2L6.432,48.16c-2.36,0.472-4.392,1.984-5.512,4.12
			c-1.12,2.128-1.224,4.656-0.272,6.872L24,113.64v20.824L8.568,173.032c-0.48,1.192-0.656,2.488-0.528,3.768l8,80
			c0.408,4.088,3.848,7.2,7.96,7.2h40v96H40v16h64v-16H80v-96h40c4.112,0,7.552-3.112,7.96-7.2l8-80
			c0.128-1.28-0.056-2.576-0.528-3.768L120,134.464V113.64L143.352,59.152z M104.648,108.84c-0.432,1-0.648,2.08-0.648,3.16v24
			c0,1.016,0.192,2.024,0.568,2.976l15.272,38.176L112.76,248H72H31.24l-7.08-70.848l15.272-38.176
			C39.808,138.024,40,137.016,40,136v-24c0-1.08-0.216-2.16-0.648-3.152l-20.12-46.936l30.336-6.072
			c3.168-0.632,5.64-3.104,6.272-6.272L62.552,16H72h9.448l6.712,33.568c0.632,3.168,3.112,5.64,6.272,6.272l30.336,6.064
			L104.648,108.84z"/>
	</g>
</g>
<g>
</g>
<g>
</g>
<g>
</g>
<g>
</g>
<g>
</g>
<g>
</g>
<g>
</g>
<g>
</g>
<g>
</g>
<g>
</g>
<g>
</g>
<g>
</g>
<g>
</g>
<g>
</g>
<g>
</g>
</svg>
