<?xml version="1.0" encoding="iso-8859-1"?>
<!-- Generator: Adobe Illustrator 19.0.0, SVG Export Plug-In . SVG Version: 6.00 Build 0)  -->
<svg fill="#273582" width="128" height="128" xmlns="http://www.w3.org/2000/svg" xmlns:xlink="http://www.w3.org/1999/xlink" x="0px" y="0px"
	 viewBox="0 0 480.003 480.003" style="enable-background:new 0 0 480.003 480.003;" xml:space="preserve">
<g>
	<g>
		<path d="M226.537,176.419l-69.424-23.144c-5.648-14.176-19.16-24.272-35.136-25.072c13.464-11.744,22.024-28.976,22.024-48.2
			c0-35.288-28.712-64-64-64c-35.288,0-64,28.712-64,64c0,20.752,9.976,39.176,25.328,50.872
			c-14.8,5.872-25.328,20.264-25.328,37.128l0.04,135.24l-16,168c-0.216,2.248,0.52,4.472,2.04,6.144
			c1.512,1.664,3.672,2.616,5.92,2.616h48c3.816,0,7.096-2.688,7.84-6.432l26.264-131.328l46.336,132.4
			c1.128,3.208,4.16,5.36,7.56,5.36h48c2.448,0,4.76-1.12,6.28-3.04c1.512-1.92,2.072-4.432,1.504-6.808l-39.784-167.088v-56.504
			l46.432,9.288c0.528,0.104,1.056,0.152,1.576,0.152c3.6,0,6.848-2.44,7.752-6.056l8-32l8-32
			C232.777,181.891,230.497,177.739,226.537,176.419z M32.001,80.003c0-26.472,21.528-48,48-48s48,21.528,48,48s-21.528,48-48,48
			S32.001,106.475,32.001,80.003z M181.873,464.003h-32.192L95.553,309.355c-1.192-3.392-4.448-5.592-8.112-5.336
			c-3.6,0.248-6.584,2.872-7.288,6.408L49.449,464.003H16.801l15.2-160v-136c0-13.232,10.768-24,24-24h64
			c10.976,0,20.152,7.448,23,17.528c0.016,0.056,0.008,0.112,0.024,0.168c0.28,1.04,0.472,1.968,0.632,2.88
			c0.16,1.128,0.344,2.248,0.344,3.424v23.176l-27.968-6.456l-22.376-22.376c-2.816-2.824-7.28-3.136-10.456-0.744l-32,24
			c-1.856,1.392-3.016,3.52-3.176,5.832c-0.16,2.312,0.68,4.584,2.32,6.224l32,32c1.12,1.12,2.536,1.88,4.088,2.184l57.568,11.52
			v60.64c0,0.624,0.072,1.248,0.216,1.848L181.873,464.003z M202.089,238.675l-110.144-22.04l-23.768-23.76l19.072-14.304
			l19.096,19.096c1.064,1.064,2.4,1.8,3.856,2.144l62.416,14.4l33.648,7.768L202.089,238.675z M210.145,206.443l-34.4-7.936
			l-15.744-3.64v-23.768l54.448,18.152L210.145,206.443z"/>
	</g>
</g>
<g>
	<g>
		<path d="M479.961,471.243l-15.96-167.616V168.003c0-16.864-10.528-31.256-25.328-37.128c15.352-11.696,25.328-30.12,25.328-50.872
			c0-35.288-28.712-64-64-64c-35.288,0-64,28.712-64,64c0,19.224,8.56,36.456,22.032,48.2
			c-15.976,0.792-29.488,10.888-35.136,25.072l-69.424,23.144c-3.96,1.328-6.24,5.48-5.224,9.528l8,32l8,32
			c0.896,3.616,4.144,6.056,7.744,6.056c0.52,0,1.048-0.048,1.576-0.16l46.432-9.28v56.504l-39.784,167.088
			c-0.568,2.376-0.016,4.888,1.504,6.808c1.52,1.92,3.832,3.04,6.28,3.04h48c3.4,0,6.432-2.152,7.552-5.352l46.336-132.4
			l26.264,131.328c0.752,3.736,4.032,6.424,7.848,6.424h48c2.248,0,4.408-0.952,5.92-2.616S480.177,473.491,479.961,471.243z
			 M352.001,80.003c0-26.472,21.528-48,48-48s48,21.528,48,48s-21.528,48-48,48S352.001,106.475,352.001,80.003z M269.857,206.435
			l-4.304-17.192l54.448-18.144v23.768l-15.744,3.632L269.857,206.435z M277.913,238.659l-4.176-16.688l33.648-7.768l62.416-14.4
			c1.464-0.336,2.8-1.08,3.856-2.144l19.096-19.096l19.072,14.304l-23.768,23.76L277.913,238.659z M430.553,464.003l-30.712-153.568
			c-0.704-3.536-3.688-6.16-7.288-6.408c-3.728-0.24-6.912,1.944-8.112,5.336l-54.12,154.64h-32.192l37.656-158.152
			c0.144-0.6,0.216-1.224,0.216-1.848v-60.64l57.568-11.512c1.544-0.312,2.968-1.072,4.088-2.184l32-32
			c1.64-1.64,2.488-3.912,2.32-6.224c-0.168-2.312-1.32-4.448-3.176-5.84l-32-24c-3.176-2.392-7.64-2.088-10.456,0.744
			l-22.376,22.376l-27.968,6.456v-23.176c0-1.176,0.184-2.296,0.344-3.424c0.16-0.904,0.344-1.832,0.632-2.88
			c0.016-0.056,0.008-0.112,0.024-0.168c2.848-10.08,12.024-17.528,23-17.528h64c13.232,0,24,10.768,24,24v136
			c0,0.256,0.016,0.504,0.04,0.76l15.16,159.24H430.553z"/>
	</g>
</g>
<g>
	<g>
		<path d="M315.585,16.843l-32-16c-2.832-1.416-6.24-1.024-8.688,1c-2.44,2.024-3.456,5.304-2.584,8.352l8.536,29.888
			c-0.288-0.008-0.56-0.08-0.848-0.08c-13.232,0-24,10.768-24,24s10.768,24,24,24s24-10.768,24-24c0-4.024-1.088-7.768-2.848-11.104
			l-8.464-29.608l15.736,7.864L315.585,16.843z M280.001,72.003c-4.416,0-8-3.592-8-8s3.584-8,8-8c2.656,0,4.904,1.392,6.36,3.392
			l1.504,5.272C287.513,68.755,284.177,72.003,280.001,72.003z"/>
	</g>
</g>
<g>
	<g>
		<path d="M227.585,64.851l-32-16c-2.832-1.416-6.232-1.024-8.688,1c-2.44,2.024-3.456,5.304-2.584,8.352l8.536,29.888
			c-0.288-0.016-0.56-0.088-0.848-0.088c-13.232,0-24,10.768-24,24s10.768,24,24,24s24-10.768,24-24
			c0-4.024-1.088-7.768-2.848-11.104l-8.464-29.608l15.736,7.872L227.585,64.851z M192.001,120.003c-4.416,0-8-3.592-8-8
			s3.584-8,8-8c2.656,0,4.904,1.392,6.36,3.392l1.504,5.272C199.513,116.755,196.177,120.003,192.001,120.003z"/>
	</g>
</g>
<g>
</g>
<g>
</g>
<g>
</g>
<g>
</g>
<g>
</g>
<g>
</g>
<g>
</g>
<g>
</g>
<g>
</g>
<g>
</g>
<g>
</g>
<g>
</g>
<g>
</g>
<g>
</g>
<g>
</g>
</svg>
