<?xml version="1.0" encoding="iso-8859-1"?>
<!-- Generator: Adobe Illustrator 19.0.0, SVG Export Plug-In . SVG Version: 6.00 Build 0)  -->
<svg fill="#273582" width="128" height="128" xmlns="http://www.w3.org/2000/svg" xmlns:xlink="http://www.w3.org/1999/xlink" x="0px" y="0px"
	 viewBox="0 0 485.064 485.064" style="enable-background:new 0 0 485.064 485.064;" xml:space="preserve">
<g>
	<g>
		<path d="M360.64,65.544l117.512,46.152l5.84-14.888l-123.24-48.4c-2.056-27.928-14.968-48.16-31.68-48.16
			c-11.616,0-21.4,9.792-26.984,25.128L242.912,2.144c-22.168-6.688-45.648,2.648-57.136,22.736
			c-11,19.264-7.736,43.664,7.952,59.344l12.496,12.496c4.952,4.96,11.832,7.408,18.76,6.704c6.976-0.688,13.2-4.432,17.088-10.256
			c5.24-7.848,5.24-18,0-25.84l-7.768-11.656l2.664-5.336l61.68,23.872c1.544,8.496,4.144,16,7.6,22.032h-25.176
			c-13.232,0-24,10.768-24,24v16c0,13.232-10.768,24-24,24h-72c-22.056,0-40,17.944-40,40v24.272
			c-0.896,0.056-1.784,0.144-2.68,0.216c-0.456,0.04-0.912,0.056-1.368,0.096c-0.32,0.032-0.64,0.04-0.96,0.072
			c-0.384,0.04-0.76,0.128-1.144,0.168c-0.176,0.016-0.336,0.056-0.512,0.072c-2.464,0.28-4.912,0.64-7.336,1.064
			c-0.512,0.088-1.032,0.152-1.552,0.248c-0.808,0.152-1.632,0.28-2.432,0.44c-3.248,0.672-6.448,1.48-9.616,2.392
			c-1.552,0.448-3.064,0.96-4.592,1.464c-1.784,0.592-3.544,1.208-5.296,1.88c-1.68,0.64-3.352,1.272-5,1.976
			c-1.592,0.688-3.144,1.448-4.712,2.192c-2.976,1.424-5.888,2.952-8.736,4.592c-1.12,0.648-2.24,1.28-3.336,1.96
			c-1.84,1.136-3.632,2.312-5.408,3.536c-0.896,0.616-1.76,1.264-2.64,1.904c-6.024,4.392-11.632,9.28-16.784,14.64
			c-0.592,0.616-1.176,1.232-1.76,1.856c-1.672,1.816-3.312,3.648-4.88,5.56c-0.2,0.24-0.384,0.496-0.576,0.736
			c-2.304,2.84-4.496,5.768-6.544,8.808c-0.32,0.472-0.608,0.968-0.92,1.44c-0.432,0.664-0.856,1.328-1.28,1.992
			c-0.408,0.64-0.832,1.264-1.224,1.912c-0.904,1.496-1.784,3-2.632,4.536c-0.408,0.736-0.8,1.472-1.2,2.216
			c-0.104,0.2-0.232,0.392-0.336,0.6c-0.048,0.088-0.04,0.192-0.08,0.28c-0.152,0.296-0.28,0.6-0.432,0.888
			c-1.064,2.096-2.12,4.192-3.072,6.36c-0.976,2.192-1.824,4.448-2.672,6.704c-0.512,1.368-1.048,2.72-1.504,4.112
			c-1.024,3.032-1.888,6.12-2.688,9.248c-0.176,0.688-0.368,1.368-0.536,2.064c-0.872,3.688-1.568,7.44-2.112,11.248
			c-0.032,0.216-0.072,0.432-0.104,0.656c-0.56,4.056-0.92,8.16-1.088,12.328c0,0.064-0.016,0.12-0.016,0.184
			c0,0.016,0.008,0.032,0.008,0.048c-0.056,1.704-0.248,3.352-0.248,5.048c0,70.576,57.424,128,128,128
			c36.752,0,69.84-15.656,93.2-40.544c0.112-0.104,0.248-0.176,0.352-0.288c0.456-0.496,0.848-1.032,1.296-1.528
			c2.008-2.224,3.96-4.488,5.808-6.848c0.696-0.88,1.344-1.792,2.008-2.688c1.712-2.304,3.376-4.64,4.936-7.064
			c0.688-1.072,1.328-2.168,1.984-3.264c1.4-2.32,2.768-4.656,4.016-7.072c0.664-1.28,1.256-2.592,1.88-3.896
			c1.096-2.304,2.184-4.608,3.144-6.984c0.608-1.504,1.128-3.048,1.68-4.576c0.496-1.384,1.064-2.736,1.52-4.144
			c0.016-0.056,0.064-0.096,0.08-0.152c0.032-0.096,0.048-0.2,0.08-0.296c0.232-0.728,0.416-1.464,0.64-2.2
			c0.328-1.096,0.592-2.2,0.888-3.304c0.496-1.856,0.992-3.72,1.408-5.592c0.216-0.968,0.44-1.92,0.632-2.896
			c0.168-0.864,0.288-1.728,0.44-2.6c0.376-2.152,0.68-4.32,0.944-6.488c0.128-1.032,0.312-2.04,0.416-3.072
			c0.048-0.48,0.072-0.96,0.112-1.44c0.336-3.664,0.536-7.352,0.536-11.064c0-2.296-0.224-4.544-0.344-6.816
			c0-0.016,0.008-0.032,0.008-0.056c-0.008-0.08-0.016-0.152-0.024-0.232c-0.224-4.064-0.632-8.064-1.232-12.024
			c-0.032-0.208-0.064-0.408-0.096-0.608c-0.6-3.824-1.352-7.592-2.28-11.296c-0.096-0.4-0.208-0.8-0.312-1.2
			c-0.904-3.456-1.928-6.856-3.104-10.192c-0.232-0.672-0.488-1.336-0.736-2c-1.128-3.024-2.336-5.992-3.672-8.904
			c-0.44-0.96-0.912-1.896-1.376-2.848c-1.256-2.568-2.568-5.088-3.992-7.56c-0.704-1.224-1.456-2.416-2.2-3.616
			c-1.328-2.128-2.672-4.232-4.112-6.28c-1-1.424-2.064-2.784-3.112-4.16c-1.344-1.744-2.68-3.48-4.104-5.152
			c-1.304-1.536-2.68-2.992-4.056-4.464c-1.336-1.424-2.656-2.856-4.048-4.216c-1.592-1.552-3.264-3.016-4.928-4.48
			c-1.328-1.168-2.632-2.352-4.008-3.464c-1.848-1.496-3.776-2.88-5.704-4.264c-1.336-0.96-2.64-1.96-4.016-2.872
			c-0.2-0.136-0.392-0.288-0.592-0.424c-0.008-0.008-0.024-0.016-0.032-0.024c-1.848-1.208-3.792-2.288-5.704-3.4
			c-1.368-0.8-2.704-1.64-4.104-2.392c-0.08-0.04-0.152-0.096-0.232-0.136c-0.2-0.104-0.392-0.24-0.592-0.344
			c-1.944-1.016-3.976-1.88-5.968-2.8c-1.424-0.656-2.808-1.368-4.256-1.976c-0.296-0.128-0.584-0.288-0.88-0.408
			c-0.48-0.2-0.992-0.336-1.472-0.528c-0.008,0-0.008-0.008-0.016-0.008c-0.12-0.048-0.248-0.08-0.368-0.128
			c-1.472-0.576-2.992-1.064-4.488-1.584c-1.472-0.512-2.904-1.088-4.392-1.544c-0.248-0.08-0.48-0.184-0.728-0.256
			c-0.416-0.128-0.848-0.2-1.264-0.32c-0.48-0.144-0.976-0.224-1.464-0.36c-1.272-0.352-2.56-0.64-3.848-0.952
			c-0.12-0.032-0.24-0.064-0.36-0.088c-1.488-0.352-2.936-0.8-4.44-1.096c-0.176-0.04-0.352-0.096-0.528-0.128
			c-0.288-0.056-0.584-0.08-0.872-0.136c-1.464-0.28-2.944-0.416-4.416-0.648c-0.872-0.136-1.744-0.264-2.616-0.384
			c-0.024,0-0.048-0.008-0.064-0.008c-1.344-0.176-2.648-0.456-4-0.592c-0.096-0.008-0.192-0.032-0.296-0.04
			c-0.136-0.016-0.272-0.016-0.408-0.024c-1.376-0.128-2.76-0.128-4.144-0.208v-24.36c0-13.232,10.768-24,24-24h72
			c22.056,0,40-17.944,40-40v-16c0-4.408,3.584-8,8-8h25.176c-5.736,10.008-9.184,24.024-9.184,40c0,20.896,5.92,38.384,15.112,48
			c-9.192,9.616-15.112,27.104-15.112,48s5.92,38.384,15.112,48c-9.192,9.616-15.112,27.104-15.112,48s5.92,38.384,15.112,48
			c-9.192,9.616-15.112,27.104-15.112,48c0,17.792,4.616,34.544,12.344,44.816l12.784-9.616c-5.624-7.488-9.128-20.976-9.128-35.2
			c0-24.416,9.48-40,16-40c6.52,0,16,15.584,16,40c0,14.224-3.504,27.712-9.128,35.192l12.784,9.616
			c7.728-10.264,12.344-27.016,12.344-44.808c0-20.896-5.92-38.384-15.112-48c9.192-9.616,15.112-27.104,15.112-48
			s-5.92-38.384-15.112-48c9.192-9.616,15.112-27.104,15.112-48s-5.92-38.384-15.112-48c9.192-9.616,15.112-27.104,15.112-48
			s-5.92-38.384-15.112-48c2.432-2.544,4.624-5.624,6.552-9.184l125.672,48.648l5.784-14.92l-125.76-48.68
			C359.368,75.584,360.184,70.704,360.64,65.544z M297.08,56.448l-61.12-23.664c-3.864-1.504-8.2,0.192-10.048,3.88l-8,16
			c-1.28,2.568-1.096,5.624,0.496,8.016l10.344,15.52c1.64,2.456,1.64,5.624,0,8.08c-1.664,2.496-4.064,3.08-5.352,3.208
			c-1.248,0.12-3.744,0.024-5.864-2.096L205.04,72.896c-10.592-10.592-12.808-27.08-5.376-40.096
			c7.76-13.576,23.624-19.872,38-15.568L298.2,41.008c-0.712,4.832-1.128,9.912-1.128,15.24
			C297.072,56.312,297.08,56.376,297.08,56.448z M85.648,249.184c0.248-0.104,0.496-0.2,0.744-0.304
			c3.224-1.336,6.512-2.536,9.856-3.568c0.056-0.016,0.104-0.032,0.16-0.048c10.912,20.688,16.664,43.72,16.664,66.984
			c0,12.624-1.72,25.248-5.12,37.648c-0.296-0.192-0.608-0.36-0.904-0.56c-2.712-1.824-5.312-3.784-7.84-5.824
			c-1.072-0.864-2.112-1.76-3.152-2.656c-0.688-0.6-1.312-1.248-1.984-1.856c1.952-9.016,3-18,3-26.752
			c0-21.376-5.376-42.304-15.616-61.064C82.856,250.52,84.216,249.784,85.648,249.184z M57.688,266.136
			c3.056-2.52,6.328-4.928,9.792-7.2c0,0,0.008,0,0.008-0.008c8.904,16.392,13.584,34.672,13.584,53.32
			c0,3.92-0.24,7.904-0.696,11.928c-0.264-0.344-0.536-0.696-0.792-1.048c-4.584-6.152-8.544-12.744-11.792-19.696
			c-0.24-0.512-0.472-1.024-0.704-1.544c-1.52-3.392-2.888-6.848-4.072-10.384c-0.112-0.336-0.224-0.664-0.336-0.992
			c-1.128-3.472-2.048-7.024-2.832-10.608c-0.168-0.792-0.336-1.584-0.488-2.384c-0.736-3.744-1.336-7.528-1.672-11.368
			C57.688,266.144,57.688,266.144,57.688,266.136z M129.072,464.248c-53.296,0-97.936-37.448-109.184-87.392
			c36.144,44.6,90.904,71.392,149.184,71.392c6.392,0,12.776-0.424,19.128-1.056C171.016,457.936,150.792,464.248,129.072,464.248z
			 M225.512,408.92c-0.528,0.888-1.064,1.776-1.616,2.648c-1.344,2.128-2.752,4.232-4.24,6.28c-0.496,0.68-1,1.352-1.512,2.016
			c-1.632,2.136-3.328,4.232-5.12,6.272c-0.208,0.24-0.432,0.472-0.64,0.704c-14.16,3.584-28.72,5.408-43.312,5.408
			c-62.16,0-120.048-33.176-151.648-86.728c0.216-3.664,0.608-7.272,1.168-10.824c0.008-0.072,0.024-0.144,0.032-0.208
			c0.52-3.296,1.208-6.528,2.008-9.72c0.128-0.52,0.264-1.032,0.4-1.544c0.36-1.352,0.824-2.664,1.232-4
			c24.896,58.008,82.464,97.024,146.808,97.024c20.048,0,39.952-3.856,58.568-11.192
			C226.944,406.352,226.264,407.648,225.512,408.92z M225.072,312.248c0-6.184-0.304-12.408-0.76-18.648
			c0.256,0.416,0.512,0.832,0.76,1.256c1.296,2.176,2.56,4.384,3.72,6.656c0.304,0.592,0.576,1.208,0.872,1.808
			c1.288,2.656,2.52,5.352,3.6,8.12c0.056,0.144,0.104,0.296,0.16,0.44c3.696,9.584,6.128,19.808,7.064,30.488
			c-5.936,4.936-12.36,9.128-19.072,12.704C223.824,340.856,225.072,326.512,225.072,312.248z M185.936,255.928
			c1.296,0.768,2.6,1.528,3.856,2.344c1.92,1.256,3.8,2.592,5.648,3.968c0.896,0.664,1.792,1.312,2.664,1.992
			c2.112,1.664,4.16,3.424,6.16,5.256c0.368,0.336,0.752,0.672,1.112,1.016c2.456,13.912,3.696,27.944,3.696,41.744
			c0,16.8-1.808,33.728-5.376,50.368c-0.608,0.2-1.224,0.384-1.832,0.576c-1.936,0.6-3.872,1.176-5.832,1.664
			c-1.208,0.304-2.432,0.544-3.648,0.808c-1.688,0.368-3.384,0.744-5.08,1.024c-0.36,0.056-0.72,0.088-1.08,0.144
			c4.464-17.784,6.848-36.08,6.848-54.584c0-19.112-2.416-37.992-7.2-56.352C185.896,255.912,185.912,255.92,185.936,255.928z
			 M149.696,242.24c1.6,0.296,3.192,0.664,4.776,1.032c0.096,0.024,0.2,0.048,0.296,0.072s0.192,0.048,0.288,0.072
			c1.456,0.344,2.904,0.712,4.336,1.12c1.704,0.48,3.392,1.008,5.08,1.568c0.4,0.136,0.8,0.272,1.2,0.408
			c0.288,0.096,0.56,0.208,0.848,0.312c7,21.112,10.552,43.104,10.552,65.424c0,19.024-2.568,37.832-7.64,55.984
			c-0.12,0-0.24,0.016-0.36,0.016c-5.488,0-10.848-0.52-16.128-1.288c5.288-17.76,8.128-36.096,8.128-54.712
			c0-24.4-4.52-47.976-13.344-70.312C148.384,242.048,149.048,242.12,149.696,242.24z M169.072,384.248
			c1.752,0,3.48-0.104,5.2-0.216l1.08-0.064c1.712-0.088,3.44-0.088,5.144-0.248c2.08-0.184,4.128-0.544,6.184-0.832
			c1.664-0.232,3.336-0.392,4.992-0.688c3.096-0.56,6.144-1.296,9.176-2.08c0.576-0.152,1.168-0.248,1.744-0.408
			c3.544-0.968,7.04-2.112,10.488-3.384c0.072-0.024,0.144-0.04,0.216-0.072c0,0,0.008,0,0.008-0.008
			c9.584-3.56,18.704-8.336,27.248-14.128c0.016,0.064,0.016,0.12,0.008,0.176c-0.064,0.696-0.144,1.392-0.224,2.088
			c-0.112,1.016-0.28,2.016-0.416,3.024c-0.248,1.832-0.496,3.664-0.84,5.472c-0.064,0.328-0.112,0.656-0.176,0.976
			c-0.336,1.688-0.76,3.344-1.168,5.008c-0.368,1.512-0.728,3.024-1.16,4.504c-20.76,11.056-44.024,16.88-67.504,16.88
			c-63.352,0-119.536-41.976-137.744-102.464c0.08-0.136,0.144-0.28,0.224-0.424c1.208-2.144,2.488-4.248,3.832-6.296
			c0.232-0.352,0.464-0.704,0.696-1.056c0.448-0.664,0.912-1.312,1.376-1.968c1.4-1.992,2.84-3.944,4.36-5.832
			c0.464-0.576,0.912-1.168,1.384-1.728c0.096-0.12,0.208-0.224,0.304-0.336c0.12,0.608,0.272,1.2,0.4,1.8
			c0.224,1.08,0.432,2.16,0.68,3.232c0.144,0.608,0.24,1.216,0.392,1.816c0.392,1.608,0.904,3.16,1.36,4.736
			c0.32,1.112,0.624,2.232,0.984,3.336c0.096,0.304,0.2,0.6,0.296,0.904c0.256,0.776,0.456,1.576,0.728,2.344
			c0.544,1.56,1.168,3.072,1.768,4.6c0.288,0.736,0.6,1.464,0.912,2.2c0.248,0.6,0.488,1.2,0.744,1.792
			c0.328,0.76,0.608,1.544,0.952,2.304c1.392,3.056,2.936,6.024,4.552,8.944c0.272,0.488,0.504,0.992,0.784,1.48
			c1.784,3.128,3.72,6.152,5.752,9.104c0.176,0.264,0.336,0.536,0.52,0.792c2.2,3.144,4.536,6.168,7,9.096
			c0.064,0.08,0.12,0.16,0.184,0.232c1.464,1.728,3,3.384,4.56,5.04c0.2,0.216,0.408,0.424,0.616,0.64
			c2.904,3.04,5.944,5.928,9.128,8.672c0.016,0.008,0.024,0.024,0.04,0.032c0.472,0.408,0.936,0.824,1.408,1.224
			c0.368,0.312,0.72,0.632,1.088,0.944c1.552,1.264,3.144,2.472,4.76,3.664c1.216,0.904,2.456,1.784,3.712,2.656
			c1.456,1,2.896,2.008,4.392,2.952c2.464,1.552,4.984,3.04,7.576,4.424c0.024,0.016,0.056,0.016,0.088,0.032
			c9.792,5.248,20.36,9.176,31.448,11.728c0.208,0.048,0.408,0.12,0.616,0.168c0.032,0.008,0.064,0,0.096,0.008
			C150.072,383.064,159.432,384.248,169.072,384.248z M145.072,312.248c0,17.472-2.568,34.704-7.648,51.344
			c-5.264-1.552-10.352-3.504-15.24-5.768c4.48-14.976,6.888-30.256,6.888-45.576c0-24.448-5.712-48.648-16.576-70.632
			c0.576-0.088,1.152-0.184,1.728-0.264c1.232-0.168,2.456-0.36,3.688-0.488c0.328-0.032,0.656-0.072,0.984-0.096
			c3.36-0.312,6.744-0.52,10.176-0.52c0.224,0,0.44,0.032,0.656,0.032C139.912,262.944,145.072,287.128,145.072,312.248z
			 M329.072,16.248c5.104,0,11.96,9.64,14.72,25.504l-26.76-10.512C320.384,21.784,325.224,16.248,329.072,16.248z M313.56,47.048
			l31.36,12.32c-0.192,5.48-0.808,10.48-1.808,14.896L313.384,62.76c-0.152-2.12-0.312-4.24-0.312-6.512
			C313.072,53.016,313.256,49.96,313.56,47.048z M337.44,89.232c-2.744,4.48-5.784,7.016-8.368,7.016
			c-3.832,0-8.656-5.504-12-14.904L337.44,89.232z M329.072,384.248c-6.52,0-16-15.584-16-40s9.48-40,16-40c6.52,0,16,15.584,16,40
			S335.592,384.248,329.072,384.248z M329.072,288.248c-6.52,0-16-15.584-16-40s9.48-40,16-40c6.52,0,16,15.584,16,40
			S335.592,288.248,329.072,288.248z M329.072,192.248c-6.52,0-16-15.584-16-40s9.48-40,16-40c6.52,0,16,15.584,16,40
			S335.592,192.248,329.072,192.248z"/>
	</g>
</g>
<g>
</g>
<g>
</g>
<g>
</g>
<g>
</g>
<g>
</g>
<g>
</g>
<g>
</g>
<g>
</g>
<g>
</g>
<g>
</g>
<g>
</g>
<g>
</g>
<g>
</g>
<g>
</g>
<g>
</g>
</svg>
