<?xml version="1.0" encoding="iso-8859-1"?>
<!-- Generator: Adobe Illustrator 19.0.0, SVG Export Plug-In . SVG Version: 6.00 Build 0)  -->
<svg fill="#273582" width="128" height="128" xmlns="http://www.w3.org/2000/svg" xmlns:xlink="http://www.w3.org/1999/xlink" x="0px" y="0px"
	 viewBox="0 0 480 480" style="enable-background:new 0 0 480 480;" xml:space="preserve">
<g>
	<g>
		<path d="M477.208,41.928c-1.768-1.528-4.12-2.184-6.424-1.832l-100.928,15.52L348.44,41.344C347.128,40.472,345.576,40,344,40
			h-15.76l7.512-30.064c0.6-2.392,0.064-4.92-1.456-6.856C332.792,1.136,330.464,0,328,0H152c-2.464,0-4.792,1.136-6.304,3.08
			c-1.512,1.936-2.056,4.472-1.456,6.856L151.76,40H136c-1.576,0-3.128,0.472-4.44,1.344l-21.416,14.272L9.216,40.096
			C6.912,39.744,4.56,40.4,2.792,41.928C1.016,43.448,0,45.664,0,48v88c0,2.224,0.928,4.36,2.56,5.864
			c1.64,1.512,3.76,2.304,6.056,2.112l100.328-7.72l13.4,13.4C123.84,151.16,125.872,152,128,152h10.864l-7.08,27.136
			C99.776,186.624,64,200.288,64,224v32c0,22.232,32.4,38.04,77.336,47.08C77.232,312.696,25.512,331.984,17.2,360H16
			c0,1.352,0.12,2.68,0.312,4C16.12,365.32,16,366.648,16,368v40c0,46.768,115.416,72,224,72s224-25.232,224-72v-40
			c0-1.352-0.12-2.68-0.312-4c0.192-1.32,0.312-2.648,0.312-4h-1.2c-8.312-28.016-60.032-47.304-124.136-56.92
			C383.6,294.04,416,278.232,416,256v-32c0-23.712-35.768-37.376-67.784-44.864L341.136,152H352c2.128,0,4.16-0.84,5.656-2.344
			l13.4-13.4l100.328,7.72c2.264,0.16,4.424-0.6,6.056-2.112c1.632-1.512,2.56-3.64,2.56-5.864V48
			C480,45.664,478.984,43.448,477.208,41.928z M131.312,136l-13.656-13.656c-1.656-1.656-3.888-2.504-6.272-2.32L16,127.36V57.328
			l94.784,14.576c1.976,0.288,3.992-0.144,5.656-1.248L138.424,56H162h14c4.416,0,8,3.584,8,8v8h-16v16h24h16c4.416,0,8,3.584,8,8
			v32c0,4.416-3.584,8-8,8h-58.784H131.312z M448,408c0,26.488-85.424,56-208,56S32,434.488,32,408v-19.896
			C67.344,416.784,155.712,432,240,432s172.656-15.216,208-43.896V408z M447.304,364c-8.016,25.368-90.864,52-207.304,52
			S40.712,389.368,32.696,364c5.8-18.352,50.776-37.352,119.304-46.464V328c0,21.984,45.616,32,88,32c42.384,0,88-10.016,88-32
			v-10.464C396.528,326.648,441.504,345.648,447.304,364z M167.968,315.712c46.288-4.92,97.744-4.928,144.032-0.008l0.016,12.176
			C310.8,332.32,286.808,344,240,344c-46.808,0-70.8-11.68-72-16L167.968,315.712z M350.24,248.456
			c1.912-2.472,3.504-5.112,4.768-7.872c2.528-5.52,3.752-11.512,3.592-17.576c-0.08-3.032-0.512-6.088-1.296-9.104l-4.464-17.12
			C385.144,205.48,400,216.608,400,224v32c0,16.312-62.328,40-160,40S80,272.312,80,256v-32c0-7.392,14.856-18.52,47.176-27.216
			l-4.464,17.128c-3.152,12.072-0.576,24.664,7.056,34.544S148.936,264,161.424,264h157.16
			C331.072,264,342.608,258.336,350.24,248.456z M341.8,217.944v-0.008c1.888,7.248,0.352,14.808-4.224,20.736
			c-4.584,5.928-11.504,9.328-19,9.328H161.424c-7.496,0-14.416-3.4-19-9.328c-4.576-5.928-6.12-13.488-4.224-20.728l7.84-30.064
			v-0.008L155.4,152H208c13.232,0,24-10.768,24-24V96c0-13.232-10.768-24-24-24h-8v-8c0-13.232-10.768-24-24-24h-7.752l-6-24
			h155.504l-6,24H304c-13.232,0-24,10.768-24,24v8h-8c-13.232,0-24,10.768-24,24v32c0,13.232,10.768,24,24,24h52.6l9.36,35.872
			v0.008l3.136,12.024L341.8,217.944z M464,127.36l-95.384-7.336c-2.384-0.152-4.616,0.672-6.272,2.32L348.688,136h-17.904H272
			c-4.416,0-8-3.584-8-8V96c0-4.416,3.584-8,8-8h16h24V72h-16v-8c0-4.416,3.584-8,8-8h14h23.576l21.984,14.656
			c1.656,1.112,3.672,1.536,5.656,1.248L464,57.328V127.36z"/>
	</g>
</g>
<g>
</g>
<g>
</g>
<g>
</g>
<g>
</g>
<g>
</g>
<g>
</g>
<g>
</g>
<g>
</g>
<g>
</g>
<g>
</g>
<g>
</g>
<g>
</g>
<g>
</g>
<g>
</g>
<g>
</g>
</svg>
