<?xml version="1.0" encoding="iso-8859-1"?>
<!-- Generator: Adobe Illustrator 19.0.0, SVG Export Plug-In . SVG Version: 6.00 Build 0)  -->
<svg fill="#273582" width="128" height="128" xmlns="http://www.w3.org/2000/svg" xmlns:xlink="http://www.w3.org/1999/xlink" x="0px" y="0px"
	 viewBox="0 0 480 480" style="enable-background:new 0 0 480 480;" xml:space="preserve">
<g>
	<g>
		<path d="M232,128c-13.232,0-24,10.768-24,24s10.768,24,24,24s24-10.768,24-24S245.232,128,232,128z M232,160c-4.408,0-8-3.592-8-8
			s3.592-8,8-8s8,3.592,8,8S236.408,160,232,160z"/>
	</g>
</g>
<g>
	<g>
		<path d="M328,128c-13.232,0-24,10.768-24,24s10.768,24,24,24s24-10.768,24-24S341.232,128,328,128z M328,160c-4.408,0-8-3.592-8-8
			s3.592-8,8-8c4.408,0,8,3.592,8,8S332.408,160,328,160z"/>
	</g>
</g>
<g>
	<g>
		<path d="M232,224c-13.232,0-24,10.768-24,24s10.768,24,24,24s24-10.768,24-24S245.232,224,232,224z M232,256c-4.408,0-8-3.592-8-8
			c0-4.408,3.592-8,8-8s8,3.592,8,8C240,252.408,236.408,256,232,256z"/>
	</g>
</g>
<g>
	<g>
		<path d="M328,224c-13.232,0-24,10.768-24,24s10.768,24,24,24s24-10.768,24-24S341.232,224,328,224z M328,256c-4.408,0-8-3.592-8-8
			c0-4.408,3.592-8,8-8c4.408,0,8,3.592,8,8C336,252.408,332.408,256,328,256z"/>
	</g>
</g>
<g>
	<g>
		<path d="M472,0h-96h-96h-96H88c-4.416,0-8,3.584-8,8v96v96v96v16.808C77.416,312.28,74.736,312,72,312c-22.056,0-40,17.944-40,40
			c0,12.504,6.032,24.328,16,31.832v42.4l-19.76,6.584C11.344,438.448,0,454.192,0,472c0,4.416,3.584,8,8,8h128c4.416,0,8-3.584,8-8
			c0-17.808-11.344-33.552-28.24-39.176L96,426.232V400h64v72c0,4.416,3.584,8,8,8h96c4.416,0,8-3.584,8-8v-36.688l42.344,42.344
			c1.56,1.56,3.608,2.344,5.656,2.344c2.048,0,4.096-0.784,5.656-2.344l64-64c3.128-3.128,3.128-8.184,0-11.312L387.312,400H472
			c4.416,0,8-3.584,8-8v-96v-96v-96V8C480,3.584,476.416,0,472,0z M288,16h80v80h-80V16z M288,112h80v80h-80V112z M288,208h80v80
			h-80V208z M288,304h80v76.688l-42.344-42.344c-1.56-1.56-3.608-2.344-5.656-2.344c-2.048,0-4.096,0.784-5.656,2.344L288,364.688
			V304z M192,16h80v80h-80V16z M192,112h80v80h-80V112z M192,208h80v80h-80V208z M96,16h80v80H96V16z M96,112h80v80H96V112z M96,208
			h80v80H96V208z M83.976,372.648C81.512,374.08,80,376.712,80,379.56V392v40c0,3.448,2.2,6.496,5.472,7.592L110.696,448
			c7.712,2.568,13.536,8.584,16,16h-109.4c2.464-7.416,8.288-13.432,16.008-16l25.232-8.408C61.8,438.496,64,435.448,64,432v-52.44
			c0-2.848-1.512-5.48-3.976-6.912C52.496,368.264,48,360.544,48,352c0-13.232,10.768-24,24-24c4.336,0,8.352,1.248,11.864,3.264
			c0.04,0.024,0.072,0.064,0.112,0.088c3.616,2.104,6.488,5.016,8.544,8.384c0.208,0.344,0.392,0.712,0.584,1.072
			c0.696,1.288,1.248,2.648,1.696,4.056c0.152,0.488,0.336,0.968,0.456,1.472C95.704,348.168,96,350.056,96,352
			C96,360.544,91.504,368.264,83.976,372.648z M160,376v8H96v-0.168c9.968-7.512,16-19.328,16-31.832
			c0-2.392-0.288-4.752-0.712-7.064c-0.096-0.528-0.168-1.056-0.288-1.576c-0.448-1.976-1.056-3.896-1.8-5.776
			c-0.32-0.832-0.68-1.624-1.056-2.424c-0.632-1.336-1.336-2.632-2.112-3.896c-0.728-1.192-1.528-2.32-2.376-3.424
			c-0.6-0.776-1.216-1.536-1.872-2.272c-1.248-1.408-2.6-2.696-4.032-3.912c-0.584-0.496-1.136-1.024-1.752-1.488V304h80v64h-8
			C163.584,368,160,371.584,160,376z M256,392v8v16v48h-80v-72v-8h8h72V392z M264,368h-72v-64h80v72
			C272,371.584,268.416,368,264,368z M320,460.688l-48-48v-9.376l5.656-5.656l8-8L320,355.312l42.344,42.344L372.688,408
			L320,460.688z M464,384h-80v-80h80V384z M464,288h-80v-80h80V288z M464,192h-80v-80h80V192z M464,96h-80V16h80V96z"/>
	</g>
</g>
<g>
	<g>
		<rect x="296" y="400" width="16" height="16"/>
	</g>
</g>
<g>
	<g>
		<rect x="328" y="400" width="16" height="16"/>
	</g>
</g>
<g>
	<g>
		<rect x="208" y="416" width="16" height="16"/>
	</g>
</g>
<g>
</g>
<g>
</g>
<g>
</g>
<g>
</g>
<g>
</g>
<g>
</g>
<g>
</g>
<g>
</g>
<g>
</g>
<g>
</g>
<g>
</g>
<g>
</g>
<g>
</g>
<g>
</g>
<g>
</g>
</svg>
